{"glyphs":{"0":{"ha":997,"x_min":25,"x_max":975,"o":"m 500 946 q 842 808 708 946 q 975 457 975 671 q 840 109 975 244 q 492 -26 706 -26 q 153 104 282 -26 q 25 450 25 235 q 159 806 25 665 q 500 946 293 946 m 315 474 q 315 426 315 444 q 322 351 315 407 q 353 196 328 296 q 511 96 378 96 q 609 130 567 96 q 669 238 651 164 q 686 442 686 311 q 641 729 686 636 q 500 822 596 822 q 315 474 315 822 z "},"1":{"ha":997,"x_min":208,"x_max":796,"o":"m 208 814 l 264 814 q 381 847 333 814 q 465 931 429 879 l 651 931 l 651 203 q 660 146 651 163 q 696 133 668 133 l 796 133 l 796 0 l 211 0 l 211 133 l 314 133 q 370 145 358 133 q 382 203 382 157 l 382 258 l 381 693 l 208 693 l 208 814 z "},"2":{"ha":997,"x_min":51,"x_max":938,"o":"m 117 231 q 197 326 151 288 q 331 408 243 364 l 442 464 q 622 658 622 557 q 565 773 622 729 q 414 817 507 817 q 311 801 351 817 q 253 769 271 786 q 211 717 235 756 l 267 722 q 340 692 308 722 q 371 622 371 663 q 329 532 371 569 q 225 497 288 497 q 114 539 157 497 q 71 654 71 581 q 186 861 71 779 q 479 943 301 943 q 798 863 676 943 q 919 647 919 783 q 636 364 919 443 l 486 322 q 456 314 465 317 q 426 303 447 311 q 388 290 399 294 q 350 275 376 286 q 280 237 307 260 q 215 156 253 214 q 278 186 256 176 q 333 208 301 196 q 428 222 379 222 q 551 207 497 222 l 626 188 q 693 179 660 179 q 780 207 746 179 q 814 281 814 235 l 817 322 l 938 322 l 938 278 q 871 62 938 142 q 685 -18 804 -18 q 468 32 610 -18 l 385 60 q 347 70 375 63 q 294 78 318 78 q 175 0 214 78 l 51 0 q 72 135 60 89 q 89 181 78 157 q 117 231 100 206 z "},"3":{"ha":997,"x_min":50,"x_max":936,"o":"m 315 122 q 404 110 361 110 q 565 156 501 110 q 628 279 628 203 q 388 440 628 440 l 388 554 l 407 554 l 456 556 q 497 563 472 556 q 576 613 547 575 q 599 651 592 631 q 607 697 607 672 q 554 802 607 765 q 407 839 501 839 q 317 830 356 839 q 265 813 279 821 q 242 795 251 804 q 226 781 232 786 q 354 679 354 781 q 316 599 354 632 q 222 567 278 567 q 123 604 164 567 q 82 700 82 642 q 192 888 82 817 q 488 958 303 958 q 791 891 679 958 q 903 704 903 824 q 860 590 903 632 q 790 533 818 547 q 747 518 776 526 q 703 506 717 510 q 881 411 826 467 q 922 350 908 383 q 936 272 936 317 q 820 63 936 139 q 494 -14 704 -14 q 172 57 294 -14 q 50 246 50 128 q 92 358 50 314 q 200 403 133 403 q 296 368 260 403 q 325 330 315 350 q 335 282 335 310 q 219 169 335 192 l 261 142 q 279 133 269 136 q 315 122 289 131 z "},"4":{"ha":997,"x_min":32,"x_max":938,"o":"m 32 424 l 551 933 l 785 933 l 785 410 l 938 410 l 938 281 l 783 281 l 783 203 q 796 144 783 156 q 851 133 808 133 l 936 133 l 936 0 l 342 0 l 342 133 l 443 133 q 499 145 488 133 q 511 203 511 157 l 511 281 l 32 281 l 32 424 m 513 411 l 513 707 l 211 411 l 513 411 z "},"5":{"ha":997,"x_min":63,"x_max":907,"o":"m 389 103 q 563 160 496 103 q 629 308 629 217 q 570 453 629 400 q 410 507 511 507 q 254 438 299 507 l 119 438 l 144 933 l 360 914 l 540 910 l 567 910 l 588 910 l 606 910 q 691 913 664 910 q 758 922 718 915 q 868 940 797 928 q 813 828 843 860 q 714 776 782 797 l 603 753 l 469 747 l 319 751 l 274 753 l 263 561 l 297 578 l 376 611 q 542 629 428 629 q 806 543 706 629 q 907 315 907 457 q 781 82 907 169 q 443 -6 656 -6 q 165 55 267 -6 q 63 219 63 115 q 105 324 63 282 q 214 365 147 365 q 304 333 267 365 q 342 251 342 300 q 226 149 342 149 l 217 150 q 301 113 263 122 q 342 106 321 108 q 389 103 364 103 z "},"6":{"ha":997,"x_min":44,"x_max":932,"o":"m 594 826 q 402 752 471 826 q 333 538 333 678 l 333 493 l 389 525 q 575 567 468 567 q 831 488 729 567 q 932 282 932 408 q 818 61 932 146 q 519 -24 704 -24 q 169 97 294 -24 q 44 436 44 218 q 185 804 44 668 q 567 940 325 940 q 806 879 710 940 q 903 728 903 818 q 863 635 903 671 q 758 600 824 600 q 663 629 700 600 q 626 707 626 658 q 707 808 626 774 q 594 826 649 826 m 511 89 q 628 138 588 89 q 669 271 669 186 q 624 399 669 349 q 506 449 579 449 q 388 401 431 449 q 344 269 344 354 q 389 138 344 186 q 511 89 433 89 z "},"7":{"ha":997,"x_min":72,"x_max":924,"o":"m 72 931 l 206 931 l 206 825 l 240 858 l 294 904 q 344 928 313 919 q 422 936 376 936 q 487 929 454 936 q 567 904 519 922 l 681 865 q 736 857 710 857 q 783 869 767 857 q 817 926 800 882 l 924 926 q 878 757 899 810 q 800 628 857 704 l 718 513 q 649 405 678 457 q 603 300 621 353 q 560 144 571 206 q 553 81 556 117 q 550 0 550 46 l 269 0 q 271 69 269 38 q 278 134 272 100 q 305 234 283 168 q 372 374 326 300 q 447 481 413 439 q 553 586 478 515 l 651 681 l 722 754 l 689 739 l 644 724 q 560 715 617 715 q 478 724 526 715 l 407 739 l 374 744 l 346 746 q 239 696 281 746 q 208 638 218 669 q 199 560 199 606 l 199 522 l 72 522 l 72 931 z "},"8":{"ha":997,"x_min":39,"x_max":960,"o":"m 135 549 q 93 674 93 599 q 206 861 93 789 q 507 933 318 933 q 798 873 689 933 q 907 710 907 813 q 894 647 907 678 q 859 594 882 615 q 811 557 836 572 l 736 515 l 817 476 q 874 440 836 468 q 936 367 913 415 q 960 267 960 319 q 838 49 960 128 q 501 -29 717 -29 q 167 44 296 -29 q 39 236 39 118 q 90 358 39 314 q 172 418 140 401 q 256 450 203 435 q 181 501 201 483 q 156 524 161 518 q 135 549 142 540 m 599 568 q 717 699 717 614 q 661 791 717 757 q 501 825 606 825 q 374 797 424 825 q 325 725 325 769 q 351 671 325 696 q 442 624 378 649 l 532 590 l 599 568 m 383 390 q 358 381 371 385 q 322 362 338 371 q 276 322 307 353 q 249 243 249 292 q 321 134 249 178 q 503 90 393 90 q 663 122 606 90 q 721 210 721 153 q 643 303 721 274 l 494 356 l 383 390 z "},"9":{"ha":997,"x_min":56,"x_max":942,"o":"m 401 92 q 588 167 521 92 q 654 381 654 242 l 654 425 l 622 404 l 561 374 q 413 351 513 351 q 157 431 258 351 q 56 635 56 510 q 169 857 56 772 q 467 942 283 942 q 817 821 692 942 q 942 481 942 700 q 803 113 942 247 q 422 -22 664 -22 q 181 37 275 -22 q 86 189 86 96 q 125 281 86 246 q 229 315 164 315 q 323 287 286 315 q 360 210 360 258 q 343 151 360 174 q 279 110 326 129 l 349 96 l 401 92 m 318 644 q 363 517 318 565 q 482 468 407 468 q 600 517 556 468 q 644 649 644 565 q 600 781 644 732 q 478 829 556 829 q 360 781 403 829 q 318 644 318 732 z "},"":{"ha":1424,"x_min":89,"x_max":1335,"o":"m 89 0 l 89 1424 l 1335 1424 l 1335 0 l 89 0 m 1246 89 l 1246 1335 l 178 1335 l 178 89 l 1246 89 z "}," ":{"ha":403,"x_min":0,"x_max":0,"o":""},"!":{"ha":397,"x_min":58,"x_max":354,"o":"m 206 228 q 302 190 263 228 q 342 97 342 151 q 301 17 342 51 q 204 -18 260 -18 q 104 15 144 -18 q 64 94 64 47 q 106 189 64 147 q 206 228 149 228 m 138 310 l 128 444 l 111 550 l 90 646 l 71 726 l 61 771 l 58 817 q 99 955 58 901 q 206 1008 140 1008 q 312 956 269 1008 q 354 817 354 903 q 342 726 354 775 l 321 646 l 301 556 l 278 415 l 274 310 l 138 310 z "},"\"":{"ha":654,"x_min":38,"x_max":618,"o":"m 42 679 l 94 706 l 133 732 q 175 786 158 749 l 143 783 q 68 813 101 783 q 38 883 38 843 q 79 976 38 939 q 178 1014 121 1014 q 276 969 236 1014 q 317 860 317 925 q 267 721 317 769 q 183 653 219 678 q 88 599 153 632 l 42 679 m 344 679 l 396 706 l 435 731 q 478 786 460 747 l 444 783 q 369 813 403 783 q 339 883 339 843 q 381 974 339 935 q 479 1014 424 1014 q 578 969 538 1014 q 618 860 618 925 q 543 700 618 769 q 485 653 521 678 l 388 599 l 344 679 z "},"#":{"ha":881,"x_min":40,"x_max":774,"o":"m 61 381 l 222 381 l 272 619 l 113 619 l 133 719 l 294 719 l 353 1000 l 453 1000 l 394 719 l 514 719 l 574 1000 l 674 1000 l 614 719 l 774 719 l 753 619 l 593 619 l 542 381 l 701 381 l 681 281 l 521 281 l 461 0 l 361 0 l 421 281 l 300 281 l 240 0 l 140 0 l 200 281 l 40 281 l 61 381 m 442 381 l 493 619 l 372 619 l 322 381 l 442 381 z "},"$":{"ha":1038,"x_min":25,"x_max":1018,"o":"m 32 388 l 179 388 l 201 317 q 250 244 219 281 q 274 221 264 231 q 314 188 294 201 q 348 169 328 179 q 390 150 368 160 q 468 128 432 135 l 468 396 q 224 455 317 421 q 78 556 132 489 q 25 715 25 624 q 142 938 25 851 q 444 1025 260 1025 l 471 1025 l 471 1096 l 568 1096 l 568 1018 q 683 992 639 1006 q 712 980 694 988 q 742 965 729 972 l 804 924 l 840 1001 l 976 1001 l 976 646 l 836 646 q 807 726 819 700 q 767 785 794 751 q 706 838 739 818 q 646 867 672 858 l 564 886 l 564 633 l 594 628 q 760 592 729 601 q 865 551 799 582 q 975 451 932 521 q 1007 379 996 417 q 1018 297 1018 342 q 972 140 1018 207 q 870 45 926 72 q 738 1 814 18 q 667 -10 704 -6 q 592 -14 629 -14 l 563 -14 l 561 -117 l 465 -117 l 465 -4 l 446 -1 q 375 13 407 4 q 319 31 343 21 q 203 93 274 47 l 165 0 l 32 0 l 32 388 m 757 244 q 588 375 757 342 l 563 381 l 563 118 q 703 152 650 118 q 757 244 757 186 m 292 774 q 325 699 292 724 q 456 654 358 674 l 469 651 l 469 888 q 398 877 432 888 q 338 850 364 867 q 292 774 292 821 z "},"%":{"ha":1174,"x_min":38,"x_max":1136,"o":"m 325 981 q 535 913 458 981 q 611 722 611 844 q 535 533 611 603 q 325 463 458 463 q 113 531 189 463 q 38 722 38 600 q 115 912 38 843 q 325 981 192 981 m 994 951 l 1097 951 l 188 0 l 85 0 l 994 951 m 847 492 q 1058 425 979 492 q 1136 242 1136 358 q 1060 60 1136 128 q 851 -7 985 -7 q 642 60 721 -7 q 564 242 564 126 q 640 422 564 353 q 847 492 717 492 m 219 722 q 325 543 219 543 q 429 722 429 543 q 403 853 429 807 q 325 900 378 900 q 219 722 219 900 m 744 242 q 774 121 744 168 q 851 74 803 74 q 929 119 897 74 q 958 242 958 165 q 929 363 958 315 q 851 410 900 410 q 775 365 806 410 q 744 242 744 319 z "},"&":{"ha":1253,"x_min":21,"x_max":1228,"o":"m 235 690 q 222 765 222 731 q 300 935 222 863 q 386 989 340 971 q 489 1007 432 1007 q 658 947 589 1007 q 728 799 728 888 q 694 685 728 733 q 663 647 678 663 q 637 621 649 631 q 608 600 625 611 q 560 571 592 589 l 664 439 q 779 311 706 389 q 854 451 854 390 q 839 485 854 475 q 789 494 824 494 l 738 494 l 738 615 l 1160 615 l 1160 501 l 1117 501 q 1038 480 1065 501 q 974 392 1011 458 q 918 297 938 325 l 860 222 q 941 160 908 178 q 1001 142 974 142 q 1111 290 1111 142 l 1111 363 l 1228 363 l 1228 285 q 1173 85 1228 171 q 961 -1 1118 -1 l 903 3 q 708 82 824 15 l 615 36 l 524 7 q 466 -3 500 1 q 397 -7 432 -7 q 128 77 235 -7 q 21 292 21 161 q 76 453 21 399 q 172 526 128 499 q 281 582 204 546 q 235 690 246 651 m 488 674 l 533 701 l 564 731 q 592 800 592 769 q 565 861 592 835 q 506 888 539 888 q 450 865 472 888 q 428 804 428 843 q 439 750 428 772 q 456 721 446 738 q 488 674 467 704 m 354 476 l 310 444 l 272 400 q 249 315 249 368 q 309 186 249 240 q 456 132 369 132 q 492 133 474 132 q 526 140 510 135 q 560 151 543 144 q 604 171 576 157 l 354 476 z "},"'":{"ha":354,"x_min":38,"x_max":317,"o":"m 42 679 l 94 706 l 133 732 q 175 786 158 749 l 143 783 q 68 813 101 783 q 38 883 38 843 q 79 976 38 939 q 178 1014 121 1014 q 276 969 236 1014 q 317 860 317 925 q 267 721 317 769 q 183 653 219 678 q 88 599 153 632 l 42 679 z "},"(":{"ha":599,"x_min":35,"x_max":599,"o":"m 599 1040 q 452 976 501 1013 q 378 878 403 939 q 345 779 354 817 q 336 697 336 742 q 331 568 336 654 q 326 449 326 482 q 335 256 326 321 q 372 118 343 192 q 447 8 401 44 q 593 -57 492 -28 l 593 -179 q 300 -98 397 -150 q 119 90 203 -46 q 35 476 35 226 q 56 697 35 611 q 101 839 76 782 q 180 970 126 896 q 324 1088 233 1044 q 599 1156 414 1132 l 599 1040 z "},")":{"ha":599,"x_min":0,"x_max":567,"o":"m 0 -62 q 147 2 100 -35 q 226 111 194 39 q 254 196 244 154 q 264 286 264 238 q 269 402 264 321 q 274 529 274 483 q 265 719 274 653 q 226 860 256 786 q 151 970 197 933 q 6 1036 106 1007 l 6 1156 q 301 1076 206 1126 q 482 887 397 1025 q 567 501 567 749 q 538 258 567 385 q 438 32 508 131 q 274 -112 367 -67 q 0 -179 182 -157 l 0 -62 z "},"*":{"ha":725,"x_min":17,"x_max":708,"o":"m 88 897 l 319 749 l 253 1019 l 357 1017 l 474 1021 l 410 751 l 653 885 q 665 825 658 854 q 676 781 671 796 l 708 672 l 436 667 l 629 471 l 444 357 l 364 617 l 251 367 l 79 500 l 296 667 l 17 690 l 56 792 l 88 897 z "},"+":{"ha":997,"x_min":151,"x_max":846,"o":"m 151 504 l 376 504 l 376 728 l 619 728 l 619 504 l 846 504 l 846 256 l 624 256 l 624 32 l 374 32 l 374 256 l 151 256 l 151 504 z "},",":{"ha":354,"x_min":38,"x_max":318,"o":"m 42 -107 q 63 -97 51 -101 q 93 -79 81 -87 l 126 -58 q 151 -36 140 -49 q 175 1 161 -28 l 143 -1 q 70 28 103 -1 q 38 97 38 57 q 79 190 38 153 q 178 228 121 228 q 276 183 233 228 q 318 75 318 139 q 266 -65 318 -14 q 185 -133 214 -115 q 88 -186 157 -151 l 42 -107 z "},"-":{"ha":444,"x_min":11,"x_max":433,"o":"m 11 456 l 433 456 l 433 257 l 11 257 l 11 456 z "},".":{"ha":354,"x_min":38,"x_max":317,"o":"m 178 228 q 276 190 235 228 q 317 97 317 153 q 276 16 317 50 q 178 -18 236 -18 q 78 15 118 -18 q 38 96 38 47 q 78 189 38 150 q 178 228 119 228 z "},"/":{"ha":965,"x_min":17,"x_max":947,"o":"m 828 1021 l 947 1021 l 140 0 l 17 0 l 828 1021 z "},":":{"ha":383,"x_min":58,"x_max":339,"o":"m 199 228 q 297 190 256 228 q 338 97 338 153 q 297 16 338 50 q 199 -18 257 -18 q 99 15 139 -18 q 58 96 58 47 q 101 188 58 149 q 199 228 143 228 m 201 715 q 298 682 257 715 q 339 600 339 649 q 297 518 339 556 q 200 485 257 485 q 101 518 142 485 q 60 600 60 551 q 101 682 60 646 q 201 715 143 715 z "},";":{"ha":383,"x_min":58,"x_max":339,"o":"m 63 -107 l 111 -81 q 150 -56 135 -69 q 175 -32 165 -46 q 197 1 186 -21 l 164 -1 q 91 28 124 -1 q 58 97 58 57 q 101 188 58 149 q 199 228 143 228 q 297 183 257 228 q 338 75 338 139 q 287 -65 338 -18 q 209 -131 236 -112 q 107 -186 182 -149 l 63 -107 m 201 717 q 299 683 258 717 q 339 600 339 650 q 299 520 339 554 q 200 486 258 486 q 103 519 146 486 q 60 600 60 553 q 101 682 60 644 q 201 717 144 717 z "},"<":{"ha":372,"x_min":17,"x_max":356,"o":"m 271 808 l 351 808 l 215 404 l 356 0 l 278 0 l 17 400 l 271 808 z "},"=":{"ha":997,"x_min":150,"x_max":847,"o":"m 150 358 l 847 358 l 847 135 l 150 135 l 150 358 m 150 654 l 847 654 l 847 431 l 150 431 l 150 654 z "},">":{"ha":372,"x_min":17,"x_max":356,"o":"m 94 808 l 356 406 l 103 0 l 21 0 l 158 401 l 17 808 l 94 808 z "},"?":{"ha":782,"x_min":14,"x_max":772,"o":"m 371 228 q 470 190 429 228 q 511 97 511 151 q 469 17 511 53 q 371 -18 426 -18 q 271 15 313 -18 q 229 96 229 49 q 272 188 229 149 q 371 228 314 228 m 294 292 l 293 336 q 311 429 293 392 l 349 494 l 411 574 q 474 665 453 625 q 494 738 494 704 q 446 844 494 804 q 318 885 397 885 q 238 872 278 885 q 176 837 197 858 q 142 760 156 815 q 215 786 188 786 q 288 752 256 786 q 321 678 321 718 q 281 588 321 624 q 181 551 240 551 q 60 601 106 551 q 14 729 14 651 q 123 933 14 851 q 400 1014 232 1014 q 669 940 565 1014 q 772 743 772 865 q 735 623 772 676 q 613 514 699 569 l 522 457 l 478 419 q 443 368 456 397 q 433 299 433 336 l 436 292 l 294 292 z "},"@":{"ha":1201,"x_min":78,"x_max":1042,"o":"m 636 297 l 617 268 l 588 235 q 499 208 565 208 q 428 225 463 208 q 356 292 393 242 q 318 472 318 342 q 321 519 318 504 l 338 589 q 385 689 351 638 q 455 765 419 740 q 525 800 490 790 q 581 810 560 810 q 658 789 621 810 q 706 732 692 768 l 715 794 l 790 794 l 740 511 l 724 401 l 719 342 q 735 297 719 314 q 772 281 750 281 l 794 285 q 821 300 808 289 l 854 331 l 882 363 l 901 396 q 940 492 929 446 l 949 543 l 950 568 q 855 827 950 725 q 607 929 760 929 q 481 916 572 929 q 288 783 389 903 q 188 490 188 663 l 190 442 q 240 276 199 364 q 377 124 282 188 q 586 61 472 61 q 821 132 715 61 q 982 285 926 203 l 997 192 l 964 150 q 579 -22 804 -22 q 242 103 382 -22 q 89 346 101 228 l 78 496 q 236 895 78 804 q 471 1003 394 986 q 632 1019 547 1019 q 924 897 807 1019 q 1042 600 1042 775 q 1042 549 1042 574 q 1035 508 1038 528 q 1007 421 1032 489 q 936 301 988 361 q 853 231 890 247 l 796 211 l 760 207 q 681 232 714 207 q 646 297 651 257 l 644 314 l 636 297 m 431 325 q 511 278 454 278 q 566 298 546 278 q 599 339 586 318 l 622 396 l 643 460 l 656 514 l 660 538 l 668 583 l 674 661 q 648 720 674 696 q 589 744 622 744 q 542 733 569 744 q 490 690 514 722 q 450 617 465 657 l 431 558 l 419 514 l 414 465 l 413 407 l 417 361 q 431 325 421 340 z "},"A":{"ha":1186,"x_min":-21,"x_max":1206,"o":"m -21 133 l 21 133 q 80 149 60 133 q 117 203 100 164 l 438 1001 l 769 1001 l 1071 203 q 1110 143 1088 157 l 1124 139 l 1138 136 l 1165 133 l 1206 133 l 1206 0 l 646 0 l 646 133 l 742 133 q 779 153 779 133 l 778 163 l 763 203 l 717 322 l 358 322 l 313 203 q 299 156 301 172 q 339 133 299 133 l 442 133 l 442 0 l -21 0 l -21 133 m 413 461 l 668 461 l 542 800 l 413 461 z "},"B":{"ha":1178,"x_min":11,"x_max":1161,"o":"m 11 1001 l 693 1001 q 856 997 813 1001 q 958 972 900 993 q 1055 895 1015 950 q 1094 772 1094 840 q 1042 626 1094 674 q 965 565 989 578 l 892 535 l 971 514 q 1076 465 990 508 q 1161 275 1161 422 q 1061 71 1161 142 q 775 0 961 0 l 11 0 l 11 133 l 108 133 q 170 147 156 133 q 185 203 185 160 l 185 264 l 185 799 q 172 855 185 843 q 108 867 158 867 l 11 867 l 11 1001 m 485 592 l 656 592 q 814 738 814 592 q 774 838 814 807 q 724 861 756 853 q 646 869 692 869 l 485 869 l 485 592 m 485 143 l 650 143 q 844 301 844 143 q 803 415 844 389 q 736 448 761 442 q 696 456 711 454 q 644 457 681 457 l 485 457 l 485 143 z "},"C":{"ha":1076,"x_min":31,"x_max":1068,"o":"m 932 997 l 1068 997 l 1068 614 l 910 614 q 888 726 899 692 q 826 824 876 761 q 640 888 775 888 q 433 791 506 888 q 360 515 360 694 q 435 226 360 329 q 647 122 510 122 q 820 181 769 122 q 883 278 871 240 q 904 389 896 317 l 1064 389 q 1042 226 1064 283 q 962 106 1021 169 q 807 10 903 43 q 586 -24 711 -24 q 183 121 336 -24 q 31 506 31 265 q 182 882 31 733 q 572 1031 333 1031 q 734 1009 669 1031 q 824 972 799 988 q 892 915 849 956 l 932 997 z "},"D":{"ha":1278,"x_min":11,"x_max":1246,"o":"m 11 1001 l 625 1001 q 862 984 772 1001 q 1044 913 951 967 q 1191 756 1136 860 q 1246 513 1246 651 q 1100 130 1246 219 q 860 20 954 40 q 629 0 767 0 l 13 0 l 13 133 l 111 133 q 175 146 163 133 q 188 203 188 158 l 188 238 l 189 799 l 188 838 q 174 858 186 849 q 118 867 163 867 l 11 867 l 11 1001 m 488 136 l 624 136 q 856 235 788 136 q 924 506 924 335 q 879 744 924 667 q 788 843 835 822 q 626 864 740 864 l 489 864 l 488 136 z "},"E":{"ha":1161,"x_min":11,"x_max":1129,"o":"m 11 1001 l 1129 1001 l 1129 624 l 976 624 l 976 678 q 955 772 976 729 q 894 836 933 814 q 820 863 867 856 q 696 871 774 871 l 488 871 l 486 588 l 571 588 q 690 711 690 588 l 690 736 l 829 736 l 829 300 l 693 300 l 693 335 q 663 424 693 392 q 576 456 633 456 l 486 456 l 486 138 l 707 138 l 726 138 l 743 138 q 826 144 801 138 q 899 174 861 150 q 956 241 936 197 q 976 358 976 285 l 978 408 l 1129 408 l 1129 0 l 11 0 l 11 133 l 113 133 q 172 147 157 133 q 186 203 186 160 l 186 246 l 186 799 q 174 854 186 842 q 115 867 163 867 l 11 867 l 11 1001 z "},"F":{"ha":1110,"x_min":11,"x_max":1111,"o":"m 11 1001 l 1111 1001 l 1111 618 l 964 618 l 964 665 q 944 761 964 717 q 892 831 925 806 q 823 859 860 851 q 693 867 786 867 l 482 867 l 482 581 l 542 581 q 656 608 621 581 q 690 701 690 635 l 690 735 l 822 735 l 822 294 l 693 294 l 693 322 q 685 376 693 351 q 661 421 678 400 q 624 444 647 435 q 553 450 599 450 l 482 450 l 482 203 q 497 147 482 160 q 568 133 513 133 l 669 133 l 669 0 l 13 0 l 13 133 l 115 133 q 169 146 157 133 q 182 203 182 158 l 182 229 l 182 797 q 170 854 182 842 q 115 867 158 867 l 11 867 l 11 1001 z "},"G":{"ha":1242,"x_min":31,"x_max":1225,"o":"m 919 1001 l 1069 1001 l 1069 615 l 918 615 q 815 815 885 757 q 643 874 744 874 q 438 777 513 874 q 364 507 364 681 q 441 226 364 336 q 642 117 518 117 l 678 118 q 696 123 685 119 q 724 133 707 126 q 784 173 756 146 q 813 226 813 200 l 813 319 q 761 389 813 389 l 697 390 l 650 390 l 650 524 l 1225 519 l 1225 386 l 1156 385 l 1125 385 q 1109 377 1117 385 q 1096 356 1101 369 q 1090 317 1090 343 l 1090 0 l 958 0 l 915 103 q 874 65 899 86 q 814 19 849 44 q 586 -26 751 -26 q 183 114 336 -26 q 31 483 31 254 q 183 869 31 718 q 578 1019 336 1019 q 713 1006 656 1019 q 803 974 771 992 q 843 951 824 964 q 892 913 863 938 l 919 1001 z "},"H":{"ha":1372,"x_min":11,"x_max":1363,"o":"m 11 133 l 117 133 q 172 146 158 133 q 185 203 185 158 l 185 799 q 174 856 185 844 q 117 867 163 867 l 11 867 l 11 1001 l 631 1001 l 631 867 l 529 867 q 494 858 504 867 q 485 838 485 850 l 485 799 l 485 581 l 888 581 l 888 799 l 888 838 q 880 856 888 844 q 844 867 872 867 l 742 867 l 742 1001 l 1363 1001 l 1363 867 l 1256 867 q 1207 860 1219 867 q 1190 840 1194 853 l 1188 799 l 1188 203 q 1200 146 1188 163 q 1256 133 1213 133 l 1363 133 l 1363 0 l 743 0 l 743 133 l 831 133 l 863 135 q 869 138 865 136 q 876 144 872 139 q 885 163 881 149 l 888 203 l 888 446 l 485 446 l 485 203 l 485 165 q 492 144 485 154 q 526 133 500 133 l 629 133 l 629 0 l 11 0 l 11 133 z "},"I":{"ha":669,"x_min":11,"x_max":660,"o":"m 11 1001 l 660 1001 l 660 867 l 556 867 q 501 855 515 867 q 486 799 486 843 l 486 203 q 496 143 486 154 q 551 133 508 133 l 660 133 l 660 0 l 13 0 l 13 133 l 114 133 q 173 147 160 133 q 186 203 186 160 l 186 246 l 186 797 q 175 854 186 843 q 119 867 167 867 l 11 867 l 11 1001 z "},"J":{"ha":919,"x_min":-25,"x_max":904,"o":"m 267 111 q 401 155 360 111 q 443 299 443 199 l 443 799 q 426 853 443 840 q 349 867 408 867 l 246 867 l 246 1001 l 904 1001 l 904 867 l 801 867 q 760 861 765 867 q 747 833 754 856 l 743 799 l 743 314 q 727 173 743 225 q 667 73 711 121 q 541 -3 622 25 q 356 -32 460 -32 q 77 40 179 -32 q -25 233 -25 111 q 24 359 -25 310 q 146 408 72 408 q 244 372 204 408 q 283 282 283 336 q 249 197 283 232 q 161 163 214 163 l 131 164 q 195 122 167 132 q 267 111 224 111 z "},"K":{"ha":1319,"x_min":11,"x_max":1333,"o":"m 11 1001 l 624 1001 l 624 867 l 521 867 q 490 854 499 867 q 486 835 488 846 q 485 799 485 824 l 485 529 l 813 799 q 853 846 850 831 q 829 868 853 868 l 760 867 l 721 867 l 721 1001 l 1294 1001 l 1294 867 l 1193 867 q 1160 863 1172 867 l 1125 838 l 1074 799 l 864 629 l 1172 203 q 1219 147 1199 164 q 1264 133 1243 133 l 1333 133 l 1333 0 l 725 0 l 725 133 l 779 133 l 817 135 q 857 156 854 135 q 836 203 857 175 l 638 449 l 485 319 l 485 203 q 494 144 485 154 q 543 133 503 133 l 622 133 l 622 0 l 11 0 l 11 133 l 122 133 q 172 147 160 133 q 183 203 183 160 l 185 229 l 185 799 q 174 854 185 843 q 122 867 165 867 l 11 867 l 11 1001 z "},"L":{"ha":1088,"x_min":11,"x_max":1071,"o":"m 11 133 l 113 133 q 165 146 154 133 q 175 203 175 158 l 175 269 l 175 799 q 164 854 175 843 q 114 867 156 867 l 11 867 l 11 1001 l 646 1001 l 646 867 l 544 867 q 490 854 504 867 q 476 799 476 842 l 476 140 l 604 140 l 632 140 l 654 140 l 672 140 q 761 147 739 140 q 855 192 799 153 q 911 358 911 232 l 913 414 l 1071 414 l 1071 0 l 11 0 l 11 133 z "},"M":{"ha":1606,"x_min":11,"x_max":1594,"o":"m 11 1001 l 604 1001 l 813 375 l 1011 1001 l 1594 1001 l 1594 868 l 1486 868 q 1444 856 1457 868 q 1432 803 1432 843 l 1432 199 q 1447 142 1432 156 q 1489 133 1454 133 l 1593 133 l 1593 0 l 1001 0 l 1001 133 l 1088 133 q 1123 145 1114 133 q 1132 199 1132 157 l 1132 844 l 871 0 l 642 0 l 369 831 l 369 197 l 369 160 q 376 142 369 151 q 404 133 382 133 l 504 133 l 504 0 l 11 0 l 11 133 l 110 133 q 168 142 160 133 q 185 197 185 153 l 185 803 q 169 854 185 840 q 99 868 153 868 l 11 868 l 11 1001 z "},"N":{"ha":1311,"x_min":11,"x_max":1300,"o":"m 11 133 l 122 133 q 172 146 160 133 q 185 203 185 158 l 185 799 q 174 854 185 843 q 118 867 165 867 l 11 867 l 11 1001 l 513 1001 l 965 313 l 965 799 q 954 853 965 840 q 906 867 943 867 l 800 867 l 800 1001 l 1300 1001 l 1300 867 l 1193 867 q 1147 857 1156 867 q 1133 799 1133 847 l 1133 0 l 844 0 l 356 743 l 357 203 q 366 147 357 160 q 414 133 375 133 l 519 133 l 519 0 l 11 0 l 11 133 z "},"O":{"ha":1215,"x_min":32,"x_max":1183,"o":"m 211 914 q 607 1036 367 1036 q 1013 906 843 1036 q 1183 507 1183 776 q 1141 272 1183 369 q 972 77 1099 175 q 607 -21 844 -21 q 247 74 372 -21 q 76 268 121 168 q 32 507 32 368 q 74 744 32 644 q 211 914 117 843 m 347 507 q 417 216 347 322 q 607 110 486 110 q 797 217 725 110 q 868 507 868 324 q 797 797 868 689 q 607 906 726 906 q 417 799 486 906 q 347 507 347 693 z "},"P":{"ha":1136,"x_min":11,"x_max":1133,"o":"m 11 133 l 96 133 q 169 145 154 133 q 185 203 185 157 l 185 233 l 185 799 q 172 853 185 840 q 107 867 158 867 l 13 867 l 13 1001 l 785 1001 q 1040 929 947 1001 q 1133 731 1133 857 q 1039 526 1133 606 q 792 446 944 446 l 485 446 l 485 203 q 503 145 485 157 q 593 133 522 133 l 696 133 l 696 0 l 11 0 l 11 133 m 485 578 l 647 578 q 740 587 710 578 q 806 631 771 596 q 840 726 840 665 q 798 826 840 793 q 724 867 756 860 q 625 875 693 875 l 485 875 l 485 578 z "},"Q":{"ha":1224,"x_min":32,"x_max":1346,"o":"m 1149 126 q 1226 215 1226 126 l 1228 258 l 1346 257 l 1344 204 q 1288 2 1344 75 q 1126 -71 1231 -71 l 1078 -67 q 1055 -62 1067 -65 q 1024 -51 1043 -60 q 960 -22 989 -40 q 894 35 932 -3 q 757 -7 828 8 q 686 -17 726 -12 q 608 -21 646 -21 q 247 76 374 -21 q 76 272 119 172 q 32 508 32 371 q 74 742 32 646 q 243 938 117 839 q 610 1036 369 1036 q 972 940 847 1036 q 1142 745 1097 844 q 1186 503 1186 646 q 1172 358 1186 419 q 1138 258 1157 296 q 1076 165 1119 221 q 1113 135 1097 144 q 1149 126 1128 126 m 858 375 l 867 435 l 869 511 q 800 800 869 694 q 610 906 731 906 q 418 799 488 906 q 349 511 349 693 l 349 475 l 354 419 q 363 346 354 374 l 400 256 q 403 299 400 283 q 417 342 407 314 q 470 415 428 369 q 603 460 513 460 q 710 436 661 460 q 851 344 760 415 l 858 375 m 743 178 q 679 246 697 232 l 639 281 q 571 300 613 300 q 503 276 528 300 q 479 214 479 253 q 501 144 479 185 l 507 133 l 557 114 q 608 110 574 110 q 683 122 651 110 q 754 164 715 133 l 743 178 z "},"R":{"ha":1264,"x_min":11,"x_max":1285,"o":"m 11 1001 l 664 1001 q 874 993 810 1001 q 993 957 939 985 q 1085 875 1053 929 q 1118 757 1118 821 q 1054 606 1118 669 q 994 560 1026 576 q 892 524 969 549 q 971 489 946 507 q 1030 431 997 474 q 1063 272 1063 388 l 1064 204 l 1074 156 q 1114 129 1082 129 q 1165 229 1165 129 l 1165 285 l 1285 285 l 1285 203 q 1221 46 1285 103 q 1040 -11 1157 -11 q 901 16 960 -11 q 818 84 843 43 q 782 168 793 125 q 774 300 774 210 q 736 424 774 388 q 603 457 699 457 l 486 457 l 486 203 q 497 146 486 158 q 551 133 508 133 l 653 133 l 653 0 l 11 0 l 11 133 l 117 133 q 174 145 163 133 q 186 203 186 157 l 186 246 l 186 799 q 174 853 186 839 q 115 867 161 867 l 11 867 l 11 1001 m 486 585 l 689 585 q 787 623 749 585 q 825 724 825 661 q 658 868 825 868 l 486 868 l 486 585 z "},"S":{"ha":1042,"x_min":31,"x_max":1022,"o":"m 846 1001 l 981 1001 l 981 646 l 840 646 l 819 710 q 774 783 806 744 q 684 851 747 814 q 503 889 621 889 q 353 856 411 889 q 296 769 296 822 q 381 675 296 700 l 626 622 q 903 535 785 593 q 1022 299 1022 478 q 908 69 1022 153 q 593 -14 794 -14 q 455 -2 531 -14 q 336 26 379 10 q 207 93 293 43 l 171 1 l 36 1 l 36 389 l 183 389 q 192 354 188 369 q 208 313 196 339 q 253 251 219 288 q 328 187 286 215 q 437 138 369 158 q 563 118 504 118 q 706 151 653 118 q 760 242 760 185 q 710 333 760 303 q 518 390 661 363 l 381 414 q 31 717 31 479 q 147 942 31 860 q 460 1025 263 1025 q 517 1024 490 1025 q 565 1018 543 1022 q 638 1006 606 1014 q 667 999 657 1001 q 697 988 676 996 q 749 965 728 979 l 810 924 l 846 1001 z "},"T":{"ha":1131,"x_min":11,"x_max":1119,"o":"m 11 1001 l 1119 1001 l 1119 613 l 974 613 l 971 654 q 969 686 971 675 q 960 721 968 697 q 922 811 950 758 q 781 864 893 864 l 719 864 l 719 203 q 732 144 719 156 q 790 133 744 133 l 892 133 l 892 0 l 231 0 l 231 133 l 349 133 l 381 133 q 401 141 389 133 q 417 168 413 149 l 419 201 l 419 864 l 349 864 q 210 806 263 864 q 158 649 158 749 l 158 611 l 11 611 l 11 1001 z "},"U":{"ha":1246,"x_min":7,"x_max":1240,"o":"m 7 1001 l 619 1001 l 619 867 l 529 867 q 478 853 492 867 q 465 799 465 840 l 465 369 q 467 304 465 333 q 474 246 468 275 q 499 185 479 217 q 681 114 547 114 q 852 167 819 114 q 893 260 885 221 q 901 358 901 300 l 901 799 q 892 855 901 843 q 851 867 883 867 l 749 867 l 749 1001 l 1240 1001 l 1240 867 l 1140 867 q 1093 854 1106 867 q 1085 835 1088 847 q 1082 799 1082 822 l 1082 368 q 1065 206 1082 265 q 972 61 1049 147 q 643 -25 896 -25 q 324 32 431 -25 q 192 153 218 89 q 165 376 165 218 l 165 799 q 153 853 165 840 q 106 867 142 867 l 7 867 l 7 1001 z "},"V":{"ha":1099,"x_min":-32,"x_max":1129,"o":"m -32 1001 l 544 1001 l 544 867 l 443 867 q 403 846 406 867 q 405 824 403 832 q 414 799 407 817 l 610 275 l 807 799 q 815 828 813 813 q 818 846 818 844 q 776 867 818 867 l 674 867 l 674 1001 l 1129 1001 l 1129 867 l 1076 867 q 1031 858 1042 867 q 1000 799 1021 850 l 681 0 l 410 0 l 100 799 q 79 840 88 831 q 60 857 75 850 q 18 867 44 867 l -32 867 l -32 1001 z "},"W":{"ha":1696,"x_min":-24,"x_max":1719,"o":"m -24 1001 l 518 1001 l 518 867 l 456 867 q 397 833 397 867 l 406 799 l 585 258 l 769 797 l 774 815 l 776 838 q 719 867 776 867 l 633 867 l 633 1001 l 1174 1001 l 1174 867 l 1097 867 q 1071 858 1085 867 q 1057 838 1057 850 q 1064 799 1057 818 l 1228 274 l 1401 799 l 1413 846 q 1406 863 1413 858 q 1374 867 1399 867 l 1289 867 l 1289 1001 l 1719 1001 l 1719 868 l 1681 867 q 1633 855 1647 867 q 1599 799 1618 843 l 1304 0 l 1022 0 l 851 525 l 675 0 l 378 0 l 107 799 q 21 867 86 867 l -24 867 l -24 1001 z "},"X":{"ha":1229,"x_min":0,"x_max":1229,"o":"m 0 133 l 68 133 l 104 135 q 126 142 111 135 q 150 158 142 150 l 193 203 l 450 486 l 196 799 l 164 832 q 131 858 150 849 q 89 867 111 867 l 15 867 l 15 1001 l 624 1001 l 624 867 l 579 867 q 535 844 536 867 q 556 799 535 828 l 651 654 l 774 799 l 794 825 l 808 849 q 769 867 808 867 l 719 867 l 719 1001 l 1175 1001 l 1175 867 l 1111 867 l 1092 865 q 1033 839 1057 861 l 996 799 l 778 557 l 1071 203 q 1128 146 1103 163 q 1186 133 1149 133 l 1229 133 l 1229 0 l 618 0 l 618 133 l 688 133 l 721 135 l 739 144 q 746 163 743 149 q 725 203 746 174 l 579 392 l 413 203 l 396 178 l 389 160 q 436 133 389 133 l 506 133 l 506 0 l 0 0 l 0 133 z "},"Y":{"ha":1082,"x_min":-32,"x_max":1113,"o":"m -32 1001 l 564 1001 l 564 867 l 511 867 q 463 864 474 867 q 447 844 449 864 q 454 822 451 829 l 468 799 l 613 575 l 749 799 q 767 846 764 825 q 739 867 767 867 l 672 867 l 672 1001 l 1113 1001 l 1113 867 l 1078 867 q 1019 858 1036 867 q 965 799 1001 849 l 696 408 l 696 203 q 709 145 696 157 q 775 133 722 133 l 876 133 l 876 0 l 217 0 l 217 133 l 318 133 q 388 145 374 133 q 401 203 401 157 l 401 242 l 401 394 l 131 799 q 78 857 94 851 l 44 865 l 31 867 l -32 867 l -32 1001 z "},"Z":{"ha":1019,"x_min":11,"x_max":996,"o":"m 11 169 l 638 865 l 444 865 q 258 826 310 865 q 206 685 206 788 l 203 624 l 49 624 l 49 1001 l 994 1001 l 994 849 l 347 135 l 626 135 q 785 185 729 135 q 842 335 842 236 l 844 385 l 996 385 l 996 0 l 11 0 l 11 169 z "},"[":{"ha":390,"x_min":49,"x_max":390,"o":"m 49 1197 l 390 1199 l 390 1006 l 299 1008 l 299 -8 l 390 -4 l 390 -197 l 49 -196 l 49 1197 z "},"\\":{"ha":493,"x_min":40,"x_max":415,"o":"m 240 1000 l 415 0 l 215 0 l 40 1000 l 240 1000 z "},"]":{"ha":390,"x_min":0,"x_max":342,"o":"m 0 -4 l 92 -8 l 92 1008 l 0 1006 l 0 1199 l 342 1197 l 342 -196 l 0 -197 l 0 -4 z "},"^":{"ha":482,"x_min":-3,"x_max":485,"o":"m 163 1026 l 319 1026 l 485 818 l 439 776 l 242 910 l 43 776 l -3 818 l 163 1026 z "},"_":{"ha":628,"x_min":40,"x_max":540,"o":"m 40 0 l 540 0 l 540 -93 l 40 -93 l 40 0 z "},"`":{"ha":358,"x_min":0,"x_max":318,"o":"m 96 1071 l 318 850 l 257 776 l 0 957 l 96 1071 z "},"a":{"ha":951,"x_min":26,"x_max":942,"o":"m 283 513 q 252 442 283 469 q 174 414 221 414 q 88 444 124 414 q 54 522 54 476 q 157 661 54 608 q 431 714 260 714 q 526 710 486 714 q 601 694 567 706 q 706 644 668 678 q 756 581 743 615 q 765 542 761 565 q 769 494 769 519 l 769 211 q 776 142 769 160 q 808 124 786 124 q 838 149 833 124 l 844 190 l 847 249 l 847 256 l 942 256 l 942 221 q 933 108 942 146 q 889 26 925 71 q 728 -18 853 -18 q 663 -13 685 -18 q 626 -3 640 -8 q 593 13 611 1 q 532 94 561 29 q 405 1 476 26 q 253 -24 333 -24 q 88 26 150 -24 q 26 163 26 76 q 72 288 26 236 q 203 357 118 339 l 318 382 q 474 431 435 403 q 514 508 514 456 q 351 617 514 617 l 318 615 q 270 609 288 615 q 228 590 253 603 q 272 555 261 569 q 283 513 283 540 m 508 342 l 463 318 l 389 289 q 314 253 342 274 q 286 201 286 232 q 375 115 286 115 q 508 283 508 115 l 508 342 z "},"b":{"ha":994,"x_min":7,"x_max":964,"o":"m 7 1001 l 390 1001 l 390 631 l 442 667 q 631 717 524 717 q 873 616 782 717 q 964 349 964 515 q 864 82 964 186 q 607 -22 764 -22 l 547 -18 q 483 -1 521 -14 q 415 29 444 13 q 385 52 401 38 q 344 90 368 67 l 301 0 l 132 0 l 132 811 q 123 863 132 850 q 82 876 114 876 l 7 876 l 7 1001 m 389 342 q 426 170 389 231 q 539 110 464 110 q 649 174 608 110 q 690 349 690 238 q 649 515 690 451 q 536 579 607 579 q 428 517 467 579 q 389 342 389 456 z "},"c":{"ha":792,"x_min":32,"x_max":775,"o":"m 488 594 q 300 344 300 594 q 346 166 300 228 q 479 104 392 104 q 583 139 556 104 q 619 196 610 174 q 627 222 622 201 q 635 263 632 243 l 775 263 q 751 147 767 186 q 671 42 735 107 q 438 -24 607 -24 q 153 67 274 -24 q 32 339 32 157 q 142 615 32 511 q 439 718 251 718 q 678 651 583 718 q 774 478 774 583 q 733 376 774 415 q 688 347 713 357 q 628 338 663 338 q 534 371 575 338 q 493 449 493 404 q 597 557 493 529 q 488 594 549 594 z "},"d":{"ha":997,"x_min":31,"x_max":988,"o":"m 597 811 q 585 863 597 849 q 535 876 572 876 l 464 876 l 464 1001 l 857 1001 l 857 190 q 869 138 857 154 q 915 124 883 124 l 988 124 l 988 0 l 607 0 l 607 90 l 551 40 q 367 -17 475 -17 q 124 84 218 -17 q 31 344 31 185 q 125 617 31 511 q 368 724 219 724 q 460 711 404 724 q 597 632 515 699 l 597 811 m 304 360 l 304 351 q 344 188 304 246 q 456 129 383 129 q 565 187 526 129 q 604 350 604 244 q 566 517 604 458 q 451 576 528 576 q 344 518 385 576 q 304 360 304 460 z "},"e":{"ha":829,"x_min":32,"x_max":804,"o":"m 286 319 q 292 241 286 264 q 303 206 299 218 q 321 175 308 194 q 461 106 369 106 q 626 247 585 106 l 796 247 q 758 138 779 174 q 662 41 736 101 q 433 -19 588 -19 q 143 81 254 -19 q 32 349 32 182 q 142 613 32 510 q 428 717 251 717 q 701 620 626 717 q 790 471 776 524 q 800 408 796 447 q 804 319 804 368 l 286 319 m 292 428 l 558 428 q 524 549 558 506 q 431 593 490 593 q 331 549 371 593 q 292 428 292 506 z "},"f":{"ha":618,"x_min":13,"x_max":757,"o":"m 13 124 l 85 124 q 131 137 119 124 q 143 190 143 150 l 143 567 l 13 567 l 13 697 l 143 697 l 143 772 q 224 965 143 903 q 475 1026 304 1026 q 680 981 603 1026 q 757 858 757 936 q 721 770 757 803 q 624 738 685 738 q 533 765 567 738 q 499 836 499 792 q 513 882 499 867 q 563 914 524 897 q 500 931 525 931 q 393 782 393 931 l 393 697 l 585 697 l 585 567 l 403 567 l 403 190 q 422 137 403 150 q 501 124 442 124 l 572 124 l 572 0 l 13 0 l 13 124 z "},"g":{"ha":953,"x_min":6,"x_max":1000,"o":"m 78 -12 q 44 32 58 6 q 31 86 31 64 q 51 149 31 121 q 93 196 71 178 q 161 238 115 214 l 117 279 q 57 439 57 343 q 155 637 57 558 q 408 715 253 715 q 467 713 449 715 q 529 700 485 710 q 688 635 603 688 l 717 668 q 850 718 769 718 q 959 682 918 718 q 1000 586 1000 646 q 974 506 1000 535 q 903 478 949 478 q 836 503 861 478 q 811 569 811 528 q 828 625 811 592 l 811 626 q 778 613 790 626 l 764 593 l 757 575 l 753 558 l 758 539 l 767 506 q 775 433 775 461 q 768 376 775 403 q 743 319 761 350 q 640 218 713 265 q 421 171 568 171 q 377 172 401 171 q 314 179 353 174 q 242 196 275 185 l 225 199 q 203 183 214 199 q 192 160 194 175 q 232 111 192 128 q 363 97 276 97 l 467 100 l 550 103 q 594 103 574 103 q 631 100 615 103 q 665 97 647 100 q 724 85 683 94 q 840 22 793 72 q 888 -97 888 -29 q 776 -274 888 -212 q 449 -335 664 -335 q 6 -169 6 -335 q 126 -44 6 -94 l 103 -31 l 78 -12 m 296 442 q 414 276 296 276 q 536 444 536 276 q 506 567 536 525 q 419 608 475 608 q 328 565 361 608 q 296 442 296 522 m 476 -85 l 378 -81 l 349 -81 q 239 -93 268 -81 q 203 -144 203 -112 q 267 -201 203 -176 q 440 -224 336 -224 q 696 -149 696 -224 q 653 -99 696 -108 l 576 -86 l 476 -85 z "},"h":{"ha":1040,"x_min":11,"x_max":1032,"o":"m 11 124 l 78 124 l 108 125 q 115 127 113 126 q 127 135 118 128 q 140 153 136 143 l 143 190 l 144 228 l 144 811 l 144 842 q 134 863 142 856 q 114 874 126 869 l 85 876 l 13 876 l 13 1001 l 403 1001 l 403 610 l 460 660 q 547 699 490 681 q 653 717 603 717 q 762 699 713 717 q 851 649 811 682 q 903 576 888 621 q 919 465 919 532 l 919 190 q 926 135 919 147 q 956 124 933 124 l 1032 124 l 1032 0 l 561 0 l 561 124 l 633 124 q 652 134 643 124 q 661 158 661 144 l 661 190 l 661 431 q 637 532 661 500 q 558 564 613 564 q 448 517 493 564 q 403 396 403 469 l 403 190 l 404 158 q 408 133 404 139 q 426 124 411 126 l 497 124 l 497 0 l 11 0 l 11 124 z "},"i":{"ha":539,"x_min":17,"x_max":529,"o":"m 17 124 l 89 124 q 136 136 124 124 q 149 190 149 149 l 147 242 l 147 503 l 146 529 q 135 556 146 543 q 92 569 124 569 l 19 569 l 19 697 l 407 697 l 407 190 l 407 160 q 415 136 407 149 q 457 124 428 124 l 529 124 l 529 0 l 17 0 l 17 124 m 269 1024 q 374 988 332 1024 q 418 901 418 954 q 376 810 418 847 q 272 772 333 772 q 169 808 211 772 q 126 892 126 843 q 169 984 126 944 q 269 1024 211 1024 z "},"j":{"ha":526,"x_min":-135,"x_max":447,"o":"m 92 -228 q 158 -196 132 -228 q 172 -158 167 -182 q 178 -81 178 -135 l 178 497 q 164 549 178 535 q 111 564 150 564 l 39 564 l 39 697 l 436 697 l 436 -32 q 425 -160 436 -125 q 347 -262 415 -197 q 125 -328 279 -328 q -63 -279 8 -328 q -135 -151 -135 -231 q -97 -69 -135 -104 q -4 -33 -58 -33 q 78 -62 46 -33 q 111 -133 111 -90 q 58 -221 111 -181 l 92 -228 m 299 1024 q 403 988 361 1024 q 447 901 447 954 q 405 810 447 847 q 300 772 363 772 q 197 807 242 772 q 156 892 156 843 q 198 984 156 944 q 299 1024 240 1024 z "},"k":{"ha":1039,"x_min":11,"x_max":1056,"o":"m 11 1001 l 400 1001 l 400 372 l 574 501 l 613 533 l 615 542 q 593 568 615 567 l 557 568 l 524 568 l 524 697 l 988 697 l 988 569 l 915 569 q 858 556 886 569 l 822 536 l 779 501 l 718 453 l 906 190 l 928 160 l 950 136 q 983 124 969 124 l 1056 124 l 1056 0 l 550 0 l 550 124 l 568 124 q 615 143 615 124 q 592 190 615 154 l 519 301 l 397 214 l 397 182 q 407 133 397 144 q 453 124 419 124 l 492 124 l 492 0 l 11 0 l 11 124 l 81 124 q 128 136 114 124 q 142 190 142 149 l 142 249 l 142 811 l 142 842 q 129 863 142 849 q 85 876 117 876 l 11 876 l 11 1001 z "},"l":{"ha":535,"x_min":11,"x_max":524,"o":"m 11 124 l 86 124 q 125 133 115 124 l 138 150 q 142 190 142 158 l 142 236 l 142 811 q 131 864 142 851 q 86 876 119 876 l 11 876 l 11 1001 l 400 1001 l 400 190 l 401 158 q 403 151 403 154 q 411 136 404 147 l 426 126 l 451 124 l 524 124 l 524 0 l 11 0 l 11 124 z "},"m":{"ha":1531,"x_min":17,"x_max":1519,"o":"m 17 124 l 89 124 q 131 135 118 124 q 149 160 144 147 l 150 190 l 151 217 l 151 503 q 140 558 151 544 q 96 571 129 571 l 24 571 l 24 697 l 403 697 l 403 599 l 429 626 l 490 675 q 651 710 538 710 q 756 696 708 710 q 831 658 803 679 q 896 588 858 636 l 950 644 q 1038 693 981 671 q 1147 711 1096 711 q 1210 706 1182 711 q 1276 683 1239 700 q 1372 601 1342 657 q 1403 438 1403 546 l 1403 192 q 1444 124 1403 124 l 1519 124 l 1519 0 l 1056 0 l 1056 124 l 1096 124 q 1135 136 1124 124 q 1144 192 1144 151 l 1144 431 q 1042 557 1144 557 q 947 515 988 557 q 906 413 906 472 l 906 192 l 907 161 q 914 131 907 138 q 946 124 921 124 l 993 124 l 993 0 l 561 0 l 561 124 l 603 124 q 639 136 628 124 q 647 192 647 149 l 647 440 q 547 557 647 557 q 449 511 489 557 q 411 390 411 465 l 411 192 q 417 135 411 147 q 449 124 424 124 l 497 124 l 497 0 l 17 0 l 17 124 z "},"n":{"ha":1044,"x_min":17,"x_max":1035,"o":"m 17 697 l 396 697 l 396 594 l 429 626 l 490 676 q 667 707 533 707 q 861 652 819 707 q 911 571 903 597 q 918 546 915 558 q 921 518 921 533 l 922 419 l 922 190 q 927 135 922 146 q 957 124 932 124 l 1035 124 l 1035 0 l 576 0 l 576 124 l 614 124 l 625 124 q 664 189 664 124 l 664 410 q 638 524 664 490 q 554 557 611 557 q 446 510 488 557 q 404 386 404 464 l 404 190 q 412 135 404 147 q 446 124 419 124 l 456 124 l 500 124 l 500 0 l 17 0 l 17 124 l 96 124 q 135 137 124 124 q 146 190 146 150 l 146 217 l 146 503 l 146 535 q 136 556 143 549 q 119 567 133 563 l 100 569 l 17 569 l 17 697 z "},"o":{"ha":910,"x_min":32,"x_max":881,"o":"m 456 715 q 765 617 650 715 q 881 349 881 518 q 765 81 881 182 q 456 -19 650 -19 q 145 79 258 -19 q 32 349 32 178 q 147 615 32 515 q 456 715 261 715 m 299 349 q 456 99 299 99 q 570 163 529 99 q 611 347 611 226 q 456 594 611 594 q 340 531 381 594 q 299 349 299 467 z "},"p":{"ha":986,"x_min":11,"x_max":957,"o":"m 11 697 l 390 697 l 390 604 l 442 653 q 633 714 524 714 q 867 615 776 714 q 957 351 957 515 q 866 88 957 189 q 624 -12 775 -12 q 582 -11 596 -12 q 534 -2 568 -10 q 475 18 500 6 l 397 69 l 397 -112 q 411 -165 397 -150 q 467 -179 425 -179 l 535 -179 l 535 -301 l 11 -301 l 11 -179 l 85 -179 q 127 -166 114 -179 q 140 -112 140 -153 l 140 506 l 140 539 l 129 560 q 90 574 119 574 l 11 574 l 11 697 m 393 347 l 393 336 q 539 128 393 128 q 692 357 692 128 q 543 576 692 576 q 393 347 393 576 z "},"q":{"ha":986,"x_min":32,"x_max":978,"o":"m 690 697 l 863 697 l 863 -117 q 871 -172 863 -160 q 918 -185 879 -185 l 978 -185 l 978 -301 l 475 -301 l 475 -189 l 499 -189 l 526 -189 q 574 -182 557 -189 q 598 -165 592 -175 q 604 -128 604 -154 l 604 64 l 556 29 q 365 -24 471 -24 q 124 76 215 -24 q 32 338 32 176 q 130 610 32 507 q 389 714 228 714 q 494 700 447 714 q 573 667 542 686 q 649 606 604 647 l 690 697 m 304 338 q 344 188 304 244 q 453 132 385 132 q 607 354 607 132 q 457 568 607 568 q 345 506 386 568 q 304 338 304 444 z "},"r":{"ha":718,"x_min":11,"x_max":749,"o":"m 11 697 l 397 697 l 397 597 q 418 627 403 607 q 439 654 433 647 q 589 719 493 719 q 703 677 658 719 q 749 568 749 635 q 715 473 749 510 q 625 436 682 436 q 540 465 575 436 q 506 543 506 494 q 510 576 506 565 l 531 610 q 434 543 468 593 q 400 422 400 493 l 400 190 l 401 154 q 404 147 403 150 q 413 136 406 143 q 471 124 429 124 l 542 124 l 542 0 l 11 0 l 11 124 l 81 124 q 128 136 114 124 q 142 190 142 149 l 140 240 l 140 500 q 128 555 140 542 q 79 568 117 568 l 11 568 l 11 697 z "},"s":{"ha":815,"x_min":31,"x_max":786,"o":"m 644 693 l 749 693 l 749 465 l 635 465 q 585 540 606 521 q 516 580 564 560 q 408 600 468 600 q 317 583 351 600 q 283 535 283 567 q 313 489 283 506 q 425 458 342 472 l 501 444 q 718 364 653 419 q 786 221 786 311 q 694 50 786 118 q 456 -18 603 -18 l 381 -14 q 283 8 321 -6 q 179 58 246 21 l 154 0 l 42 0 l 42 253 l 158 253 l 185 208 q 274 136 214 165 q 342 111 304 119 q 418 103 381 103 q 502 120 468 103 q 536 168 536 138 q 531 193 536 182 q 517 214 526 207 q 465 235 497 226 l 349 261 l 232 286 q 175 306 206 294 q 117 331 138 322 q 31 488 31 368 q 123 653 31 588 q 360 719 215 719 q 450 713 404 719 q 501 704 496 706 q 533 692 507 703 q 571 675 551 685 q 619 647 590 665 l 644 693 z "},"t":{"ha":646,"x_min":3,"x_max":638,"o":"m 3 692 q 120 723 82 704 q 182 774 158 742 q 217 844 206 806 q 236 958 228 883 l 385 958 l 385 697 l 622 697 l 622 568 l 385 568 l 385 244 l 385 196 q 392 147 385 178 q 444 115 400 115 q 499 149 479 115 q 517 246 517 185 l 517 314 l 638 314 l 638 210 q 389 -15 638 -15 q 182 48 224 -15 q 132 147 140 111 q 128 194 129 169 q 126 272 126 219 l 126 574 l 3 574 l 3 692 z "},"u":{"ha":1032,"x_min":11,"x_max":1021,"o":"m 11 697 l 386 697 l 386 282 q 413 167 386 201 q 496 135 440 135 q 528 138 517 135 l 565 154 q 609 190 590 167 q 636 239 628 213 q 644 311 644 265 l 644 501 q 634 555 644 542 q 590 568 624 568 l 518 568 l 518 697 l 903 697 l 903 190 q 912 137 903 150 q 953 124 921 124 l 1021 124 l 1021 0 l 651 0 l 651 93 l 606 49 l 539 8 q 392 -17 490 -17 l 321 -12 q 288 -7 297 -10 q 250 7 278 -4 q 171 61 211 22 q 134 132 142 94 q 126 283 126 169 l 126 503 l 126 536 q 119 556 126 544 q 89 571 113 568 l 11 571 l 11 697 z "},"v":{"ha":846,"x_min":-32,"x_max":875,"o":"m -32 697 l 451 697 l 451 571 l 382 571 q 339 542 339 571 l 343 525 l 351 503 l 479 197 l 600 504 q 613 547 613 532 q 579 571 613 571 l 539 571 l 539 697 l 875 697 l 875 571 l 817 571 q 786 557 800 571 q 758 504 778 546 l 547 0 l 303 0 l 86 503 q 54 554 69 539 q 15 569 42 569 l -32 569 l -32 697 z "},"w":{"ha":1322,"x_min":-17,"x_max":1339,"o":"m -17 697 l 432 697 l 432 572 l 407 572 q 360 542 360 572 l 369 504 l 464 221 l 564 506 q 572 539 572 526 q 514 572 572 572 l 497 572 l 497 697 l 961 697 l 961 572 l 946 571 l 925 571 q 869 538 869 571 l 876 506 l 976 229 l 1086 506 l 1096 542 q 1053 572 1096 572 l 1024 572 l 1024 697 l 1339 697 l 1339 571 l 1318 569 q 1265 558 1281 569 q 1231 504 1249 546 l 1040 0 l 803 0 l 665 358 l 522 0 l 296 0 l 97 504 q 65 559 82 546 q 13 572 47 572 l -17 572 l -17 697 z "},"x":{"ha":968,"x_min":-7,"x_max":976,"o":"m -7 124 l 43 124 l 60 124 q 79 126 68 124 l 108 139 l 133 153 l 178 190 l 342 333 l 168 504 l 133 536 l 107 557 l 81 567 l 56 571 l 19 571 l 19 697 l 508 697 l 508 569 l 497 569 q 461 567 467 569 q 456 554 456 560 q 458 547 457 550 q 464 536 460 543 l 492 503 l 549 440 l 610 503 l 642 535 q 651 556 649 542 q 629 569 651 568 l 597 569 l 597 697 l 949 697 l 949 569 l 922 569 q 876 561 893 569 l 851 544 l 838 535 l 799 503 l 642 371 l 829 190 l 867 158 l 893 135 q 939 124 911 124 l 976 124 l 976 0 l 474 0 l 474 124 l 493 124 q 536 144 536 124 q 507 190 536 157 l 443 261 l 372 190 l 344 160 q 336 142 336 149 l 336 136 q 347 126 342 129 l 356 124 l 382 124 l 382 0 l -7 0 l -7 124 z "},"y":{"ha":907,"x_min":-25,"x_max":931,"o":"m 199 -226 q 350 -99 288 -226 l 382 -37 l 113 503 q 78 554 96 539 q 38 569 61 569 l -21 569 l -21 697 l 489 697 l 489 571 l 419 571 q 381 549 381 571 q 396 504 381 539 l 524 236 l 661 504 l 679 551 q 647 571 679 571 l 576 571 l 576 697 l 931 697 l 931 571 l 914 571 l 885 568 q 858 556 875 568 l 842 533 l 825 501 l 511 -90 q 193 -332 382 -332 q 38 -279 100 -332 q -25 -147 -25 -226 q 15 -41 -25 -85 q 118 3 56 3 q 207 -28 172 3 q 242 -107 242 -58 q 149 -210 242 -176 q 199 -226 178 -226 z "},"z":{"ha":775,"x_min":24,"x_max":747,"o":"m 24 154 l 419 568 l 303 568 q 193 542 225 568 q 161 450 161 517 l 161 407 l 40 407 l 40 697 l 747 697 l 747 564 l 328 128 l 450 128 q 528 132 503 128 q 587 159 554 136 q 619 272 619 182 l 619 318 l 746 318 l 746 0 l 24 0 l 24 154 z "},"{":{"ha":551,"x_min":40,"x_max":469,"o":"m 133 600 l 133 1031 q 169 1133 133 1097 q 271 1169 206 1169 l 469 1169 l 469 1050 l 451 1050 q 391 1035 408 1050 q 374 983 374 1019 l 374 631 q 288 508 374 543 l 250 500 l 288 492 q 350 442 326 476 q 374 369 374 408 l 374 17 q 451 -50 374 -50 l 469 -50 l 469 -169 l 271 -169 q 169 -133 206 -169 q 133 -31 133 -97 l 133 400 q 108 472 133 443 q 40 500 82 500 q 107 528 81 500 q 133 600 133 557 z "},"|":{"ha":303,"x_min":40,"x_max":240,"o":"m 40 1000 l 240 1000 l 240 0 l 40 0 l 40 1000 z "},"}":{"ha":551,"x_min":40,"x_max":469,"o":"m 40 -50 l 58 -50 q 119 -35 101 -50 q 136 17 136 -19 l 136 369 q 160 442 136 410 q 224 492 183 475 l 260 500 l 224 508 q 160 558 183 525 q 136 631 136 592 l 136 983 q 119 1034 136 1018 q 58 1050 101 1050 l 40 1050 l 40 1169 l 239 1169 q 340 1133 304 1169 q 376 1031 376 1097 l 376 600 q 403 528 376 558 q 469 500 431 500 q 403 471 432 500 q 376 400 376 442 l 376 -31 q 340 -133 376 -97 q 239 -169 304 -169 l 40 -169 l 40 -50 z "},"~":{"ha":594,"x_min":-3,"x_max":597,"o":"m 40 1200 q 183 1282 93 1282 q 339 1244 244 1282 q 456 1207 433 1207 q 509 1222 493 1207 q 538 1279 525 1236 l 597 1279 l 597 1263 q 595 1233 597 1253 q 592 1206 593 1213 q 583 1175 590 1200 q 531 1102 578 1142 q 433 1063 483 1063 q 296 1097 390 1063 l 186 1138 l 149 1143 q 57 1064 78 1143 l -3 1064 q 1 1105 -3 1086 q 12 1145 4 1124 q 40 1200 19 1167 z "},"":{"ha":354,"x_min":38,"x_max":318,"o":"m 42 -107 q 63 -97 51 -101 q 93 -79 81 -87 l 126 -58 q 151 -36 140 -49 q 175 1 161 -28 l 143 -1 q 70 28 103 -1 q 38 97 38 57 q 79 190 38 153 q 178 228 121 228 q 276 183 233 228 q 318 75 318 139 q 266 -65 318 -14 q 185 -133 214 -115 q 88 -186 157 -151 l 42 -107 z "},"":{"ha":739,"x_min":-218,"x_max":856,"o":"m 35 -175 q 73 -170 54 -175 q 107 -151 92 -165 q 135 -114 122 -142 q 146 -85 140 -104 l 153 -26 l 215 567 l 78 564 l 92 692 l 226 692 l 236 765 q 242 828 236 803 q 263 881 249 853 q 358 969 283 921 q 585 1018 433 1018 q 782 977 708 1018 q 856 867 856 936 q 817 767 856 804 q 710 729 779 729 q 624 753 656 729 q 593 819 593 779 q 609 870 593 850 q 669 907 625 890 q 633 917 649 914 q 603 922 618 921 q 482 776 499 922 l 475 692 l 671 690 l 658 563 l 468 564 l 403 -17 q 303 -209 390 -147 q 49 -271 215 -271 q -141 -228 -64 -271 q -218 -122 -218 -186 q -176 -19 -218 -60 q -64 18 -135 18 q 44 -72 44 18 q -25 -160 44 -126 q 35 -175 8 -172 z "},"":{"ha":654,"x_min":38,"x_max":618,"o":"m 42 -107 q 63 -97 51 -101 q 93 -79 81 -87 l 126 -58 q 151 -36 140 -49 q 175 1 161 -28 l 143 -1 q 70 28 103 -1 q 38 97 38 57 q 79 190 38 153 q 178 228 121 228 q 276 183 233 228 q 318 75 318 139 q 266 -65 318 -14 q 185 -133 214 -115 q 88 -186 157 -151 l 42 -107 m 344 -107 l 393 -81 q 429 -57 414 -69 l 456 -32 q 478 1 467 -21 l 444 -1 q 372 28 404 -1 q 339 97 339 57 q 381 188 339 149 q 479 228 424 228 q 578 183 538 228 q 618 75 618 139 q 566 -65 618 -14 q 488 -133 514 -117 q 388 -186 463 -149 l 344 -107 z "},"":{"ha":1383,"x_min":82,"x_max":1307,"o":"m 232 281 q 338 236 293 281 q 382 131 382 192 q 338 24 382 68 q 232 -19 294 -19 q 125 24 169 -19 q 82 131 82 69 q 126 237 82 193 q 232 281 169 281 m 694 281 q 800 236 756 281 q 844 131 844 192 q 801 24 844 68 q 694 -19 757 -19 q 588 24 632 -19 q 544 131 544 69 q 588 237 544 193 q 694 281 632 281 m 1157 281 q 1263 236 1218 281 q 1307 131 1307 192 q 1263 24 1307 68 q 1157 -19 1219 -19 q 1050 24 1094 -19 q 1007 131 1007 69 q 1051 237 1007 193 q 1157 281 1094 281 z "},"":{"ha":1053,"x_min":11,"x_max":1042,"o":"m 199 710 l 199 618 l 396 618 l 396 821 l 300 817 l 300 1007 l 751 1007 l 751 817 l 656 821 l 656 618 l 854 618 l 854 710 l 1042 711 l 1042 285 l 853 286 l 853 383 l 658 383 l 658 -86 l 751 -81 l 751 -274 l 301 -274 l 301 -81 l 394 -85 l 394 383 l 199 383 l 199 286 l 11 285 l 11 711 l 199 710 z "},"":{"ha":1071,"x_min":17,"x_max":1054,"o":"m 18 340 l 204 339 l 204 246 l 401 247 l 403 482 l 206 483 l 206 389 l 17 389 l 18 808 l 207 808 l 206 715 l 403 715 l 403 814 l 308 810 l 308 996 l 758 994 l 758 808 l 665 814 l 665 715 l 863 715 l 863 807 l 1054 807 l 1054 389 l 860 388 l 860 483 l 665 485 l 665 246 l 860 246 l 863 335 l 1054 336 l 1051 -85 l 857 -82 l 857 14 l 665 14 l 664 -86 l 757 -81 l 756 -276 l 307 -276 l 308 -81 l 400 -86 l 401 15 l 203 17 l 203 -79 l 17 -79 l 18 340 z "},"":{"ha":1353,"x_min":17,"x_max":1335,"o":"m 238 981 q 398 910 338 981 q 458 722 458 840 q 399 531 458 600 q 238 463 339 463 q 76 531 135 463 q 17 722 17 600 q 75 911 17 842 q 238 981 133 981 m 753 951 l 832 951 l 132 0 l 53 0 l 753 951 m 638 492 q 802 424 742 492 q 863 242 863 356 q 803 61 863 129 q 643 -7 743 -7 q 482 60 542 -7 q 422 242 422 126 q 481 422 422 353 q 638 492 540 492 m 1113 492 q 1274 424 1214 492 q 1335 242 1335 357 q 1275 61 1335 129 q 1115 -7 1215 -7 q 956 60 1017 -7 q 894 242 894 128 q 953 423 894 354 q 1113 492 1013 492 m 558 242 q 581 119 558 165 q 642 74 604 74 q 701 120 678 74 q 725 242 725 167 q 703 363 725 317 q 644 410 682 410 q 583 365 607 410 q 558 242 558 319 m 156 722 q 176 590 156 638 q 238 543 197 543 q 319 722 319 543 q 299 852 319 804 q 239 900 278 900 q 156 722 156 900 m 1033 242 q 1055 120 1033 167 q 1114 74 1076 74 q 1174 120 1150 74 q 1199 242 1199 167 q 1176 363 1199 318 q 1117 410 1156 410 q 1056 364 1081 410 q 1033 242 1033 315 z "},"":{"ha":372,"x_min":17,"x_max":356,"o":"m 271 808 l 351 808 l 215 404 l 356 0 l 278 0 l 17 400 l 271 808 z "},"":{"ha":1818,"x_min":31,"x_max":1789,"o":"m 983 0 l 840 -1 l 704 -8 l 624 -15 l 571 -17 q 181 124 331 -17 q 31 492 31 264 q 181 867 31 724 q 582 1011 332 1011 l 717 1006 l 853 1004 q 908 1003 871 1004 q 965 1001 946 1001 l 1789 1001 l 1789 615 l 1633 615 l 1632 672 q 1573 810 1632 758 q 1413 863 1514 863 l 1144 863 l 1144 581 l 1225 581 q 1319 608 1289 581 q 1350 700 1350 635 l 1351 729 l 1488 729 l 1488 296 l 1354 296 l 1354 332 q 1219 449 1354 449 l 1147 449 l 1147 135 l 1401 135 q 1502 144 1469 135 q 1584 198 1535 153 q 1633 339 1633 243 l 1636 404 l 1786 404 l 1786 0 l 983 0 m 850 301 l 850 721 q 647 892 850 892 q 356 494 356 892 q 422 199 356 290 q 638 107 489 107 q 808 152 776 107 q 846 224 839 197 q 850 301 850 247 z "},"":{"ha":354,"x_min":36,"x_max":317,"o":"m 311 933 l 263 908 l 219 881 q 179 826 201 865 l 211 828 q 284 799 251 828 q 317 729 317 769 q 276 638 317 676 q 175 599 235 599 q 76 643 117 599 q 36 751 36 688 q 88 892 36 842 q 135 932 114 915 q 169 958 156 949 q 267 1014 197 978 l 311 933 z "},"":{"ha":354,"x_min":38,"x_max":317,"o":"m 42 679 l 94 706 l 133 732 q 175 786 158 749 l 143 783 q 68 813 101 783 q 38 883 38 843 q 79 976 38 939 q 178 1014 121 1014 q 276 969 236 1014 q 317 860 317 925 q 267 721 317 769 q 183 653 219 678 q 88 599 153 632 l 42 679 z "},"":{"ha":654,"x_min":36,"x_max":617,"o":"m 311 933 l 263 908 l 219 881 q 179 826 201 865 l 211 828 q 284 799 251 828 q 317 729 317 769 q 276 638 317 676 q 175 599 235 599 q 76 643 117 599 q 36 751 36 688 q 88 892 36 842 q 135 932 114 915 q 169 958 156 949 q 267 1014 197 978 l 311 933 m 613 933 q 561 907 574 917 l 529 885 q 479 826 500 868 l 513 828 q 585 798 554 828 q 617 729 617 768 q 576 638 617 676 q 533 608 556 618 q 478 599 510 599 q 380 643 422 599 q 338 753 338 688 q 357 838 338 797 q 405 906 376 878 q 469 958 433 933 l 569 1014 l 613 933 z "},"":{"ha":654,"x_min":38,"x_max":618,"o":"m 42 679 l 94 706 l 133 732 q 175 786 158 749 l 143 783 q 68 813 101 783 q 38 883 38 843 q 79 976 38 939 q 178 1014 121 1014 q 276 969 236 1014 q 317 860 317 925 q 267 721 317 769 q 183 653 219 678 q 88 599 153 632 l 42 679 m 344 679 l 396 706 l 435 731 q 478 786 460 747 l 444 783 q 369 813 403 783 q 339 883 339 843 q 381 974 339 935 q 479 1014 424 1014 q 578 969 538 1014 q 618 860 618 925 q 543 700 618 769 q 485 653 521 678 l 388 599 l 344 679 z "},"":{"ha":410,"x_min":64,"x_max":344,"o":"m 206 481 q 303 443 263 481 q 344 350 344 406 q 304 269 344 303 q 204 235 264 235 q 104 267 144 235 q 64 349 64 300 q 106 441 64 401 q 206 481 149 481 z "},"":{"ha":997,"x_min":150,"x_max":847,"o":"m 150 511 l 847 511 l 847 286 l 150 286 l 150 511 z "},"":{"ha":1383,"x_min":42,"x_max":1342,"o":"m 42 597 l 1342 597 l 1342 397 l 42 397 l 42 597 z "},"":{"ha":1054,"x_min":40,"x_max":935,"o":"m 40 1000 l 349 1000 l 349 906 l 246 907 l 246 500 l 142 500 l 142 907 l 40 906 l 40 1000 m 414 1000 l 517 1000 l 606 758 l 628 688 l 633 633 q 639 689 633 663 q 661 758 644 715 l 750 1000 l 854 1000 l 935 500 l 835 500 l 793 765 l 789 801 l 789 835 l 790 868 l 772 801 l 765 775 l 761 765 l 665 500 l 601 500 l 506 765 l 503 775 l 494 801 l 476 868 l 478 843 l 478 818 l 478 801 l 474 765 l 432 500 l 332 500 l 414 1000 z "},"":{"ha":372,"x_min":17,"x_max":356,"o":"m 94 808 l 356 406 l 103 0 l 21 0 l 158 401 l 17 808 l 94 808 z "},"":{"ha":1407,"x_min":32,"x_max":1383,"o":"m 796 663 q 1000 711 876 711 q 1256 631 1172 711 q 1361 488 1339 550 q 1383 322 1383 426 l 871 319 l 871 297 q 917 159 871 213 q 1036 106 963 106 q 1142 139 1108 106 q 1167 168 1153 150 q 1182 189 1176 181 l 1204 246 l 1375 246 q 1340 142 1358 178 q 1248 43 1321 107 q 1014 -21 1175 -21 q 950 -19 968 -21 q 901 -10 932 -17 q 823 15 851 1 q 742 71 794 28 l 693 39 q 583 -4 651 13 q 444 -21 515 -21 q 144 76 256 -21 q 32 338 32 172 q 145 603 32 506 q 456 701 258 701 q 572 692 522 701 q 651 670 621 683 q 733 619 682 657 q 796 663 767 647 m 299 351 l 299 340 q 339 163 299 226 q 453 99 379 99 q 565 160 526 99 q 604 335 604 222 q 594 442 604 394 q 564 522 585 489 q 450 589 524 589 q 340 527 381 589 q 299 351 299 465 m 869 426 l 1136 425 q 1101 544 1136 501 q 1007 588 1067 588 q 917 549 946 588 q 882 489 893 513 l 869 426 z "},"":{"ha":1082,"x_min":-32,"x_max":1113,"o":"m -32 1001 l 564 1001 l 564 867 l 511 867 q 463 864 474 867 q 447 844 449 864 q 454 822 451 829 l 468 799 l 613 575 l 749 799 q 767 846 764 825 q 739 867 767 867 l 672 867 l 672 1001 l 1113 1001 l 1113 867 l 1078 867 q 1019 858 1036 867 q 965 799 1001 849 l 696 408 l 696 203 q 709 145 696 157 q 775 133 722 133 l 876 133 l 876 0 l 217 0 l 217 133 l 318 133 q 388 145 374 133 q 401 203 401 157 l 401 242 l 401 394 l 131 799 q 78 857 94 851 l 44 865 l 31 867 l -32 867 l -32 1001 m 393 1369 q 479 1333 443 1369 q 515 1247 515 1297 q 481 1164 515 1199 q 394 1129 446 1129 q 310 1166 344 1129 q 275 1253 275 1203 q 310 1334 275 1299 q 393 1369 344 1369 m 689 1369 q 773 1335 738 1369 q 808 1254 808 1301 q 774 1165 808 1201 q 689 1129 740 1129 q 604 1163 640 1129 q 568 1247 568 1197 q 602 1333 568 1297 q 689 1369 636 1369 z "}," ":{"ha":694,"x_min":0,"x_max":0,"o":""},"¡":{"ha":397,"x_min":58,"x_max":354,"o":"m 208 1008 q 307 976 265 1008 q 349 894 349 943 q 306 802 349 842 q 207 763 264 763 q 108 800 150 763 q 69 894 69 839 q 109 976 69 943 q 208 1008 149 1008 m 274 682 l 283 547 l 300 440 l 321 346 l 342 264 q 354 174 354 219 q 313 36 354 90 q 206 -18 271 -18 q 99 35 139 -18 q 58 174 58 88 l 60 224 l 69 264 l 90 346 q 94 365 92 356 q 101 388 96 375 l 115 458 l 131 544 q 138 682 138 586 l 274 682 z "},"¢":{"ha":792,"x_min":32,"x_max":775,"o":"m 390 804 l 467 807 l 465 715 q 684 645 594 715 q 774 475 774 575 q 732 372 774 414 q 628 333 690 333 q 534 367 575 333 q 493 444 493 400 q 599 553 493 526 q 497 592 547 592 l 464 589 l 465 103 l 483 103 q 585 138 556 103 q 619 193 611 172 l 635 260 l 775 260 q 768 215 775 239 l 756 156 q 701 69 747 114 q 607 4 654 24 q 536 -17 561 -12 l 464 -26 l 464 -124 l 385 -124 l 385 -24 l 342 -19 l 249 4 q 104 112 176 24 q 32 336 32 200 q 124 595 32 497 q 390 714 217 693 l 390 804 m 301 344 q 322 209 301 260 q 390 125 343 158 l 390 567 q 301 344 301 515 z "},"£":{"ha":911,"x_min":31,"x_max":881,"o":"m 240 453 l 44 450 l 44 579 l 164 579 l 139 631 l 132 651 l 124 686 l 119 731 q 231 931 119 849 q 499 1013 342 1013 q 690 972 619 1013 q 792 890 761 932 q 832 818 818 854 q 839 781 836 803 q 842 729 842 760 l 624 707 q 501 847 607 847 q 430 821 457 847 q 403 756 403 794 q 411 710 403 735 l 428 667 l 453 614 l 460 599 l 469 579 l 682 582 l 682 451 l 508 453 q 525 349 525 382 q 521 289 525 313 l 507 239 l 564 213 l 603 207 q 710 307 693 207 l 881 263 q 838 124 860 169 q 778 48 817 79 q 700 0 740 17 q 661 -10 683 -6 q 618 -14 639 -14 q 419 72 526 -14 q 333 11 375 31 q 285 -7 307 -1 q 235 -12 264 -12 q 88 38 146 -12 q 31 168 31 89 q 81 285 31 236 q 204 335 132 335 q 304 314 250 335 q 292 378 304 358 q 268 414 288 386 q 240 453 256 432 m 313 188 q 271 213 293 203 q 226 222 249 222 q 183 207 201 222 q 164 168 164 192 q 224 113 164 113 q 313 188 283 113 z "},"¤":{"ha":690,"x_min":40,"x_max":599,"o":"m 114 361 q 74 506 74 425 l 75 540 q 85 583 75 554 q 114 646 93 615 l 43 717 q 56 735 51 729 q 71 751 60 740 q 103 782 83 768 l 179 704 q 322 750 244 750 q 461 706 399 750 l 536 783 l 569 751 l 585 733 l 599 715 l 526 647 q 561 578 549 617 q 569 541 567 558 q 572 500 572 524 q 525 358 572 422 l 599 286 l 571 256 l 536 221 l 461 296 q 319 250 399 250 q 181 296 246 250 l 101 222 l 72 253 l 40 289 l 114 361 m 322 338 q 437 385 389 338 q 485 500 485 432 q 438 615 485 567 q 322 663 390 663 q 208 615 256 663 q 160 500 160 567 q 207 385 160 433 q 322 338 254 338 z "},"¥":{"ha":1179,"x_min":17,"x_max":1161,"o":"m 17 1001 l 613 1001 l 613 867 l 558 867 q 508 864 518 867 q 496 844 497 861 q 517 799 496 832 l 661 575 l 797 799 q 815 846 813 825 q 786 867 815 867 l 721 867 l 721 1001 l 1161 1001 l 1161 867 l 1126 867 q 1067 857 1082 867 q 1014 799 1047 850 l 815 508 l 1132 508 l 1132 419 l 753 419 l 743 401 l 744 358 l 1131 360 l 1131 275 l 744 272 l 743 203 l 743 197 q 757 144 743 158 q 822 133 772 133 l 925 133 l 925 0 l 264 0 l 264 133 l 367 133 q 435 144 422 133 q 449 203 449 156 l 449 242 l 447 278 l 44 276 l 44 365 l 451 365 l 449 394 l 429 422 l 44 422 l 44 513 l 371 513 l 179 799 q 125 857 144 851 q 92 865 121 861 l 78 867 l 17 867 l 17 1001 z "},"§":{"ha":886,"x_min":31,"x_max":854,"o":"m 72 764 q 170 952 72 882 q 436 1022 268 1022 q 701 959 624 1022 q 797 854 779 896 q 829 733 814 821 l 599 733 q 547 829 586 793 q 440 865 508 865 q 371 844 401 865 q 340 796 340 824 q 424 717 340 750 l 654 626 q 802 520 750 589 q 854 363 854 451 q 832 246 854 290 q 743 143 810 201 q 799 69 785 100 q 813 -12 813 38 q 714 -209 813 -137 q 439 -281 615 -281 q 181 -220 263 -281 q 74 -112 99 -160 q 50 22 50 -64 l 282 21 q 291 -37 282 -14 q 334 -92 300 -60 q 440 -125 368 -125 q 515 -104 486 -125 q 544 -49 544 -83 q 531 -10 544 -24 q 474 24 517 4 l 229 119 q 31 382 31 199 q 54 497 31 453 q 146 600 78 540 q 88 681 104 647 q 72 764 72 715 m 322 507 q 275 413 275 456 q 340 326 275 351 l 574 235 l 604 279 q 613 317 613 296 q 592 375 613 346 q 532 421 571 404 l 322 507 z "},"¨":{"ha":526,"x_min":-3,"x_max":531,"o":"m 115 1017 q 201 981 165 1017 q 238 894 238 944 q 203 811 238 846 q 117 776 168 776 q 32 813 67 776 q -3 900 -3 850 q 32 981 -3 946 q 115 1017 67 1017 m 411 1017 q 495 983 460 1017 q 531 901 531 949 q 497 813 531 849 q 411 776 463 776 q 326 810 363 776 q 290 894 290 844 q 324 981 290 944 q 411 1017 358 1017 z "},"©":{"ha":1294,"x_min":81,"x_max":1117,"o":"m 599 1019 q 965 868 814 1019 q 1117 500 1117 717 q 965 133 1117 285 q 599 -18 814 -18 q 232 133 383 -18 q 81 500 81 285 q 231 867 81 714 q 599 1019 382 1019 m 301 196 q 439 103 358 136 q 517 79 476 88 q 600 71 558 71 q 760 101 685 71 q 928 228 835 132 q 1021 501 1021 325 q 928 772 1021 678 q 758 898 835 867 q 597 929 682 929 q 440 899 513 929 q 303 806 367 869 q 211 665 246 746 q 176 500 176 585 q 301 196 176 325 m 758 647 q 685 685 721 679 l 631 692 q 509 647 561 692 q 449 553 457 601 l 442 493 q 484 367 442 418 q 576 307 526 315 l 636 300 l 672 304 q 692 308 688 307 q 707 315 697 310 l 733 329 q 758 347 747 336 l 818 256 q 708 200 765 215 q 617 188 654 188 q 428 251 508 188 q 333 379 347 315 l 319 457 l 318 496 q 331 596 318 525 q 425 736 343 667 q 621 806 507 806 q 703 797 649 806 q 819 738 757 788 l 758 647 z "},"ª":{"ha":678,"x_min":39,"x_max":586,"o":"m 586 443 l 586 310 l 53 310 l 53 443 l 586 443 m 439 1000 l 585 1000 l 586 508 l 438 508 l 438 585 l 426 567 q 364 517 404 536 q 274 497 324 497 q 197 506 250 497 q 92 583 144 515 q 39 746 39 651 l 40 775 l 53 844 q 130 959 63 901 q 274 1017 197 1017 q 374 990 332 1017 q 439 928 417 963 l 439 1000 m 293 626 l 318 625 q 397 653 364 625 q 435 710 429 682 l 440 756 l 432 819 q 375 878 424 865 l 314 889 q 226 851 264 889 q 192 756 192 814 q 219 669 192 703 q 293 626 246 635 z "},"«":{"ha":613,"x_min":17,"x_max":594,"o":"m 271 808 l 351 808 l 215 404 l 356 0 l 278 0 l 17 400 l 271 808 m 511 808 l 592 808 l 456 404 l 594 0 l 518 0 l 257 400 l 511 808 z "},"¬":{"ha":951,"x_min":40,"x_max":840,"o":"m 40 700 l 840 700 l 840 300 l 690 300 l 690 500 l 40 500 l 40 700 z "},"®":{"ha":1294,"x_min":81,"x_max":1117,"o":"m 599 1019 q 965 868 814 1019 q 1117 500 1117 717 q 965 133 1117 285 q 599 -18 814 -18 q 232 133 383 -18 q 81 500 81 285 q 231 867 81 714 q 599 1019 382 1019 m 301 196 q 439 103 358 136 q 517 79 476 88 q 600 71 558 71 q 760 101 685 71 q 928 228 835 132 q 1021 501 1021 325 q 928 772 1021 678 q 758 898 835 867 q 597 929 682 929 q 440 899 513 929 q 303 806 367 869 q 211 665 246 746 q 176 500 176 585 q 301 196 176 325 m 411 803 l 597 803 q 685 796 660 803 q 747 760 710 789 q 793 696 785 732 l 803 646 l 804 621 q 774 524 804 563 q 685 467 744 485 l 674 464 l 840 210 l 699 210 l 532 478 l 532 210 l 411 210 l 411 803 m 578 526 q 671 571 661 526 l 681 622 q 654 682 681 660 q 582 704 628 704 l 532 704 l 532 526 l 578 526 z "},"±":{"ha":825,"x_min":61,"x_max":703,"o":"m 703 26 l 61 26 l 61 121 l 703 121 l 703 26 m 429 460 l 703 460 l 703 365 l 429 365 l 429 196 l 335 196 l 335 365 l 61 365 l 61 460 l 335 460 l 335 629 l 429 629 l 429 460 z "},"´":{"ha":372,"x_min":40,"x_max":371,"o":"m 283 1067 l 371 949 l 99 778 l 40 858 l 283 1067 z "},"µ":{"ha":865,"x_min":101,"x_max":775,"o":"m 231 213 q 250 81 231 114 q 319 47 269 47 q 451 160 397 47 q 504 443 504 274 l 504 624 l 632 624 l 632 168 q 644 76 632 106 q 685 47 657 47 q 728 76 713 47 q 744 161 744 104 l 744 181 l 774 181 l 775 168 l 775 150 q 742 32 775 76 q 650 -12 710 -12 q 546 47 583 -12 q 508 226 508 107 q 423 45 476 103 q 289 -12 369 -12 q 188 24 229 -12 q 132 131 150 61 l 131 92 q 174 -103 131 0 q 219 -232 217 -207 q 204 -275 219 -260 q 161 -290 189 -290 q 115 -266 129 -290 q 101 -193 101 -242 l 104 -112 l 107 11 l 106 151 l 103 283 l 103 624 l 231 624 l 231 213 z "},"¶":{"ha":931,"x_min":40,"x_max":821,"o":"m 821 1000 l 821 890 l 342 890 q 204 832 263 890 q 163 769 176 803 q 149 693 149 736 q 206 556 149 613 q 342 500 263 500 l 425 500 l 425 810 l 544 810 l 544 0 l 425 0 l 425 390 l 342 390 q 129 478 218 390 q 40 694 40 565 q 128 909 40 818 q 343 1000 215 1000 l 821 1000 m 625 810 l 744 810 l 744 0 l 625 0 l 625 810 z "},"¸":{"ha":249,"x_min":-3,"x_max":253,"o":"m 15 -231 l 36 -233 l 54 -235 q 112 -219 85 -235 q 140 -182 139 -203 q 57 -137 140 -137 l 49 -137 l 17 -137 l 67 43 l 135 43 l 114 -61 l 128 -61 q 223 -86 193 -61 q 253 -161 253 -111 q 197 -258 253 -218 q 58 -297 140 -297 q -3 -290 29 -297 l 15 -231 z "},"º":{"ha":678,"x_min":40,"x_max":586,"o":"m 49 443 l 579 443 l 579 310 l 49 310 l 49 443 m 367 1015 q 526 924 465 997 q 586 756 586 851 q 508 567 586 643 q 313 490 429 490 q 118 566 196 490 q 40 756 40 642 q 119 944 40 869 q 311 1019 199 1019 l 367 1015 m 189 731 q 231 656 197 685 q 313 626 265 626 q 402 663 365 626 q 439 756 439 700 l 436 781 q 375 874 422 864 l 313 883 q 292 882 300 883 q 246 873 285 881 q 189 779 207 865 l 186 756 l 189 731 z "},"»":{"ha":613,"x_min":17,"x_max":594,"o":"m 94 808 l 356 406 l 103 0 l 21 0 l 158 401 l 17 808 l 94 808 m 333 808 l 594 406 l 342 0 l 261 0 l 396 401 l 257 808 l 333 808 z "},"¿":{"ha":782,"x_min":11,"x_max":769,"o":"m 413 1014 q 510 981 469 1014 q 551 900 551 947 q 509 809 551 849 q 410 769 467 769 q 311 807 353 769 q 272 901 272 846 q 314 981 272 947 q 413 1014 356 1014 m 488 704 l 488 660 l 483 607 q 467 558 479 583 q 432 501 454 532 l 368 421 q 306 331 322 364 q 289 260 289 297 q 337 152 289 193 q 464 111 385 111 q 542 125 506 111 q 606 159 586 138 q 640 236 626 181 q 568 210 590 210 q 496 243 531 210 q 461 318 461 276 q 501 408 461 372 q 603 444 542 444 q 724 396 679 444 q 769 265 769 347 q 662 61 769 140 q 383 -18 554 -18 q 113 57 215 -18 q 11 253 11 132 q 47 374 11 322 q 163 478 82 426 l 264 543 q 286 560 279 554 q 306 579 293 565 q 338 628 325 599 q 347 697 347 660 l 347 704 l 488 704 z "},"À":{"ha":1186,"x_min":-21,"x_max":1206,"o":"m -21 133 l 21 133 q 80 149 60 133 q 117 203 100 164 l 438 1001 l 769 1001 l 1071 203 q 1110 143 1088 157 l 1124 139 l 1138 136 l 1165 133 l 1206 133 l 1206 0 l 646 0 l 646 133 l 742 133 q 779 153 779 133 l 778 163 l 763 203 l 717 322 l 358 322 l 313 203 q 299 156 301 172 q 339 133 299 133 l 442 133 l 442 0 l -21 0 l -21 133 m 413 461 l 668 461 l 542 800 l 413 461 m 510 1424 l 732 1203 l 671 1129 l 414 1310 l 510 1424 z "},"Á":{"ha":1186,"x_min":-21,"x_max":1206,"o":"m -21 133 l 21 133 q 80 149 60 133 q 117 203 100 164 l 438 1001 l 769 1001 l 1071 203 q 1110 143 1088 157 l 1124 139 l 1138 136 l 1165 133 l 1206 133 l 1206 0 l 646 0 l 646 133 l 742 133 q 779 153 779 133 l 778 163 l 763 203 l 717 322 l 358 322 l 313 203 q 299 156 301 172 q 339 133 299 133 l 442 133 l 442 0 l -21 0 l -21 133 m 413 461 l 668 461 l 542 800 l 413 461 m 690 1419 l 778 1301 l 506 1131 l 447 1211 l 690 1419 z "},"Â":{"ha":1186,"x_min":-21,"x_max":1206,"o":"m -21 133 l 21 133 q 80 149 60 133 q 117 203 100 164 l 438 1001 l 769 1001 l 1071 203 q 1110 143 1088 157 l 1124 139 l 1138 136 l 1165 133 l 1206 133 l 1206 0 l 646 0 l 646 133 l 742 133 q 779 153 779 133 l 778 163 l 763 203 l 717 322 l 358 322 l 313 203 q 299 156 301 172 q 339 133 299 133 l 442 133 l 442 0 l -21 0 l -21 133 m 413 461 l 668 461 l 542 800 l 413 461 m 514 1379 l 671 1379 l 836 1171 l 790 1129 l 593 1263 l 394 1129 l 349 1171 l 514 1379 z "},"Ã":{"ha":1186,"x_min":-21,"x_max":1206,"o":"m -21 133 l 21 133 q 80 149 60 133 q 117 203 100 164 l 438 1001 l 769 1001 l 1071 203 q 1110 143 1088 157 l 1124 139 l 1138 136 l 1165 133 l 1206 133 l 1206 0 l 646 0 l 646 133 l 742 133 q 779 153 779 133 l 778 163 l 763 203 l 717 322 l 358 322 l 313 203 q 299 156 301 172 q 339 133 299 133 l 442 133 l 442 0 l -21 0 l -21 133 m 413 461 l 668 461 l 542 800 l 413 461 m 490 1347 q 548 1342 522 1347 q 611 1319 574 1336 l 699 1285 l 733 1279 q 807 1344 790 1279 l 861 1344 q 851 1265 861 1300 q 801 1183 843 1221 q 714 1149 760 1149 q 686 1151 696 1149 q 651 1160 676 1153 q 601 1175 608 1172 q 558 1192 593 1178 l 492 1217 q 460 1221 479 1221 q 379 1150 394 1221 l 325 1150 q 379 1296 336 1244 q 490 1347 422 1347 z "},"Ä":{"ha":1186,"x_min":-21,"x_max":1206,"o":"m -21 133 l 21 133 q 80 149 60 133 q 117 203 100 164 l 438 1001 l 769 1001 l 1071 203 q 1110 143 1088 157 l 1124 139 l 1138 136 l 1165 133 l 1206 133 l 1206 0 l 646 0 l 646 133 l 742 133 q 772 138 765 133 l 778 153 l 775 167 l 763 203 l 717 322 l 358 322 l 313 203 q 299 156 301 172 q 339 133 299 133 l 442 133 l 442 0 l -21 0 l -21 133 m 458 1275 q 539 1242 504 1275 q 574 1160 574 1208 q 540 1072 574 1108 q 451 1036 506 1036 q 372 1070 406 1036 q 338 1158 338 1104 q 374 1240 338 1206 q 458 1275 410 1275 m 760 1275 q 844 1242 807 1275 q 881 1161 881 1208 q 847 1073 881 1110 q 767 1036 814 1036 q 681 1072 717 1036 q 644 1160 644 1108 q 678 1240 644 1206 q 760 1275 711 1275 m 667 461 l 542 796 l 413 461 l 667 461 z "},"Å":{"ha":1186,"x_min":-21,"x_max":1206,"o":"m -21 133 l 21 133 q 80 149 60 133 q 117 203 100 164 l 438 1001 l 517 1001 q 444 1135 444 1054 q 490 1247 444 1201 q 603 1293 536 1293 q 715 1247 669 1293 q 761 1131 761 1200 q 688 1001 761 1050 l 769 1001 l 1071 203 q 1110 143 1088 157 l 1124 139 l 1138 136 l 1165 133 l 1206 133 l 1206 0 l 646 0 l 646 133 l 742 133 q 772 138 765 133 l 778 153 l 775 167 l 763 203 l 717 322 l 358 322 l 313 203 q 299 156 301 172 q 339 133 299 133 l 442 133 l 442 0 l -21 0 l -21 133 m 667 461 l 542 796 l 413 461 l 667 461 m 604 1058 q 656 1081 633 1058 q 678 1133 678 1103 q 656 1185 678 1163 q 604 1207 633 1207 q 550 1186 571 1207 q 529 1133 529 1165 q 550 1081 529 1106 q 604 1058 572 1058 z "},"Æ":{"ha":1801,"x_min":-24,"x_max":1771,"o":"m -24 133 l -7 133 l 22 133 q 51 142 42 136 q 124 203 88 154 l 558 785 q 588 838 588 825 q 583 856 588 850 q 561 867 578 863 l 501 869 l 461 869 l 461 1001 l 1771 1001 l 1771 615 l 1615 615 l 1615 660 q 1596 753 1615 710 q 1543 822 1578 799 q 1388 865 1492 865 l 1129 865 l 1129 582 l 1222 582 q 1272 589 1258 582 q 1311 624 1289 594 q 1333 703 1333 653 l 1335 731 l 1471 731 l 1471 297 l 1338 297 l 1336 329 q 1306 417 1336 385 q 1225 450 1276 450 l 1129 450 l 1129 136 l 1392 136 q 1490 146 1460 136 q 1553 186 1524 154 q 1618 354 1618 244 l 1618 404 l 1769 404 l 1769 0 l 667 0 l 667 133 l 769 133 q 825 144 814 133 q 836 203 836 156 l 836 365 l 476 365 l 358 203 q 326 147 326 158 q 332 136 326 140 l 360 133 l 463 133 l 463 0 l -24 0 l -24 133 m 563 493 l 839 493 l 839 874 l 563 493 z "},"Ç":{"ha":1078,"x_min":31,"x_max":1067,"o":"m 932 1001 l 1067 1001 l 1067 618 l 910 618 q 888 728 901 693 q 828 826 875 764 q 646 888 782 888 q 360 519 360 888 q 435 228 360 332 q 647 125 510 125 q 818 185 768 125 q 881 281 868 244 q 904 393 893 318 l 1064 393 q 1043 232 1064 288 q 963 113 1022 176 q 831 23 903 49 q 715 -11 758 -3 q 600 -19 671 -19 l 589 -62 q 697 -87 667 -62 q 726 -174 726 -112 q 669 -279 726 -236 q 531 -322 611 -322 l 497 -321 l 468 -314 l 488 -251 l 525 -254 q 585 -236 558 -254 q 613 -193 613 -218 q 529 -146 613 -146 l 521 -146 l 488 -147 l 524 -18 q 413 -1 458 -11 q 332 22 367 8 q 149 153 268 47 q 31 508 31 258 q 182 888 31 740 q 572 1035 333 1035 q 732 1011 669 1035 q 824 972 800 990 q 892 921 849 957 l 932 1001 z "},"È":{"ha":1161,"x_min":11,"x_max":1129,"o":"m 11 1001 l 1129 1001 l 1129 624 l 976 624 l 976 678 q 955 772 976 729 q 894 836 933 814 q 820 863 867 856 q 696 871 774 871 l 488 871 l 486 588 l 571 588 q 690 711 690 588 l 690 736 l 829 736 l 829 300 l 693 300 l 693 335 q 663 424 693 392 q 576 456 633 456 l 486 456 l 486 138 l 707 138 l 726 138 l 743 138 q 826 144 801 138 q 899 174 861 150 q 956 241 936 197 q 976 358 976 285 l 978 408 l 1129 408 l 1129 0 l 11 0 l 11 133 l 113 133 q 172 147 157 133 q 186 203 186 160 l 186 246 l 186 799 q 174 854 186 842 q 115 867 163 867 l 11 867 l 11 1001 m 497 1424 l 719 1203 l 658 1129 l 401 1310 l 497 1424 z "},"É":{"ha":1161,"x_min":11,"x_max":1129,"o":"m 11 1001 l 1129 1001 l 1129 624 l 976 624 l 976 678 q 955 772 976 729 q 894 836 933 814 q 820 863 867 856 q 696 871 774 871 l 488 871 l 486 588 l 571 588 q 690 711 690 588 l 690 736 l 829 736 l 829 300 l 693 300 l 693 335 q 663 424 693 392 q 576 456 633 456 l 486 456 l 486 138 l 707 138 l 726 138 l 743 138 q 826 144 801 138 q 899 174 861 150 q 956 241 936 197 q 976 358 976 285 l 978 408 l 1129 408 l 1129 0 l 11 0 l 11 133 l 113 133 q 172 147 157 133 q 186 203 186 160 l 186 246 l 186 799 q 174 854 186 842 q 115 867 163 867 l 11 867 l 11 1001 m 678 1419 l 765 1301 l 493 1131 l 435 1211 l 678 1419 z "},"Ê":{"ha":1161,"x_min":11,"x_max":1129,"o":"m 11 1001 l 1129 1001 l 1129 624 l 976 624 l 976 678 q 955 772 976 729 q 894 836 933 814 q 820 863 867 856 q 696 871 774 871 l 488 871 l 486 588 l 571 588 q 690 711 690 588 l 690 736 l 829 736 l 829 300 l 693 300 l 693 335 q 663 424 693 392 q 576 456 633 456 l 486 456 l 486 138 l 707 138 l 726 138 l 743 138 q 826 144 801 138 q 899 174 861 150 q 956 241 936 197 q 976 358 976 285 l 978 408 l 1129 408 l 1129 0 l 11 0 l 11 133 l 113 133 q 172 147 157 133 q 186 203 186 160 l 186 246 l 186 799 q 174 854 186 842 q 115 867 163 867 l 11 867 l 11 1001 m 501 1379 l 658 1379 l 824 1171 l 778 1129 l 581 1263 l 382 1129 l 336 1171 l 501 1379 z "},"Ë":{"ha":1161,"x_min":11,"x_max":1129,"o":"m 11 1001 l 1129 1001 l 1129 624 l 976 624 l 976 678 q 955 772 976 729 q 894 836 933 814 q 820 863 867 856 q 696 871 774 871 l 488 871 l 486 588 l 571 588 q 690 711 690 588 l 690 736 l 829 736 l 829 300 l 693 300 l 693 335 q 663 424 693 392 q 576 456 633 456 l 486 456 l 486 138 l 707 138 l 726 138 l 743 138 q 826 144 801 138 q 899 174 861 150 q 956 241 936 197 q 976 358 976 285 l 978 408 l 1129 408 l 1129 0 l 11 0 l 11 133 l 113 133 q 172 147 157 133 q 186 203 186 160 l 186 246 l 186 799 q 174 854 186 842 q 115 867 163 867 l 11 867 l 11 1001 m 432 1369 q 518 1333 482 1369 q 554 1247 554 1297 q 519 1164 554 1199 q 433 1129 485 1129 q 349 1166 383 1129 q 314 1253 314 1203 q 349 1334 314 1299 q 432 1369 383 1369 m 728 1369 q 812 1335 776 1369 q 847 1254 847 1301 q 813 1165 847 1201 q 728 1129 779 1129 q 643 1163 679 1129 q 607 1247 607 1197 q 641 1333 607 1297 q 728 1369 675 1369 z "},"Ì":{"ha":669,"x_min":11,"x_max":660,"o":"m 11 1001 l 660 1001 l 660 867 l 556 867 q 501 855 515 867 q 486 799 486 843 l 486 203 q 496 143 486 154 q 551 133 508 133 l 660 133 l 660 0 l 13 0 l 13 133 l 114 133 q 173 147 160 133 q 186 203 186 160 l 186 246 l 186 797 q 175 854 186 843 q 119 867 167 867 l 11 867 l 11 1001 m 251 1424 l 474 1203 l 413 1129 l 156 1310 l 251 1424 z "},"Í":{"ha":669,"x_min":11,"x_max":660,"o":"m 11 1001 l 660 1001 l 660 867 l 556 867 q 501 855 515 867 q 486 799 486 843 l 486 203 q 496 143 486 154 q 551 133 508 133 l 660 133 l 660 0 l 13 0 l 13 133 l 114 133 q 173 147 160 133 q 186 203 186 160 l 186 246 l 186 797 q 175 854 186 843 q 119 867 167 867 l 11 867 l 11 1001 m 432 1419 l 519 1301 l 247 1131 l 189 1211 l 432 1419 z "},"Î":{"ha":669,"x_min":11,"x_max":660,"o":"m 11 1001 l 660 1001 l 660 867 l 556 867 q 501 855 515 867 q 486 799 486 843 l 486 203 q 496 143 486 154 q 551 133 508 133 l 660 133 l 660 0 l 13 0 l 13 133 l 114 133 q 173 147 160 133 q 186 203 186 160 l 186 246 l 186 797 q 175 854 186 843 q 119 867 167 867 l 11 867 l 11 1001 m 256 1379 l 413 1379 l 578 1171 l 532 1129 l 335 1263 l 136 1129 l 90 1171 l 256 1379 z "},"Ï":{"ha":669,"x_min":11,"x_max":660,"o":"m 11 1001 l 660 1001 l 660 867 l 556 867 q 501 855 515 867 q 486 799 486 843 l 486 203 q 496 143 486 154 q 551 133 508 133 l 660 133 l 660 0 l 13 0 l 13 133 l 114 133 q 173 147 160 133 q 186 203 186 160 l 186 246 l 186 797 q 175 854 186 843 q 119 867 167 867 l 11 867 l 11 1001 m 186 1369 q 272 1333 236 1369 q 308 1247 308 1297 q 274 1164 308 1199 q 188 1129 239 1129 q 103 1166 138 1129 q 68 1253 68 1203 q 103 1334 68 1299 q 186 1369 138 1369 m 482 1369 q 566 1335 531 1369 q 601 1254 601 1301 q 567 1165 601 1201 q 482 1129 533 1129 q 397 1163 433 1129 q 361 1247 361 1197 q 395 1333 361 1297 q 482 1369 429 1369 z "},"Ñ":{"ha":1311,"x_min":11,"x_max":1300,"o":"m 11 133 l 122 133 q 172 146 160 133 q 185 203 185 158 l 185 799 q 174 854 185 843 q 118 867 165 867 l 11 867 l 11 1001 l 513 1001 l 965 313 l 965 799 q 954 853 965 840 q 906 867 943 867 l 800 867 l 800 1001 l 1300 1001 l 1300 867 l 1193 867 q 1147 857 1156 867 q 1133 799 1133 847 l 1133 0 l 844 0 l 356 743 l 357 203 q 366 147 357 160 q 414 133 375 133 l 519 133 l 519 0 l 11 0 l 11 133 m 553 1347 q 610 1342 585 1347 q 674 1319 636 1336 l 761 1285 l 796 1279 q 869 1344 853 1279 l 924 1344 q 914 1265 924 1300 q 864 1183 906 1221 q 776 1149 822 1149 q 749 1151 758 1149 q 714 1160 739 1153 q 663 1175 671 1172 q 621 1192 656 1178 l 554 1217 q 522 1221 542 1221 q 442 1150 457 1221 l 388 1150 q 442 1296 399 1244 q 553 1347 485 1347 z "},"Ò":{"ha":1215,"x_min":32,"x_max":1183,"o":"m 211 914 q 607 1036 367 1036 q 1013 906 843 1036 q 1183 507 1183 776 q 1141 272 1183 369 q 972 77 1099 175 q 607 -21 844 -21 q 247 74 372 -21 q 76 268 121 168 q 32 507 32 368 q 74 744 32 644 q 211 914 117 843 m 347 507 q 417 216 347 322 q 607 110 486 110 q 797 217 725 110 q 868 507 868 324 q 797 797 868 689 q 607 906 726 906 q 417 799 486 906 q 347 507 347 693 m 524 1424 l 746 1203 l 685 1129 l 428 1310 l 524 1424 z "},"Ó":{"ha":1215,"x_min":32,"x_max":1183,"o":"m 211 914 q 607 1036 367 1036 q 1013 906 843 1036 q 1183 507 1183 776 q 1141 272 1183 369 q 972 77 1099 175 q 607 -21 844 -21 q 247 74 372 -21 q 76 268 121 168 q 32 507 32 368 q 74 744 32 644 q 211 914 117 843 m 347 507 q 417 216 347 322 q 607 110 486 110 q 797 217 725 110 q 868 507 868 324 q 797 797 868 689 q 607 906 726 906 q 417 799 486 906 q 347 507 347 693 m 704 1419 l 792 1301 l 519 1131 l 461 1211 l 704 1419 z "},"Ô":{"ha":1215,"x_min":32,"x_max":1183,"o":"m 211 914 q 607 1036 367 1036 q 1013 906 843 1036 q 1183 507 1183 776 q 1141 272 1183 369 q 972 77 1099 175 q 607 -21 844 -21 q 247 74 372 -21 q 76 268 121 168 q 32 507 32 368 q 74 744 32 644 q 211 914 117 843 m 347 507 q 417 216 347 322 q 607 110 486 110 q 797 217 725 110 q 868 507 868 324 q 797 797 868 689 q 607 906 726 906 q 417 799 486 906 q 347 507 347 693 m 529 1379 l 686 1379 l 851 1171 l 806 1129 l 608 1263 l 410 1129 l 364 1171 l 529 1379 z "},"Õ":{"ha":1215,"x_min":32,"x_max":1183,"o":"m 211 914 q 607 1036 367 1036 q 1013 906 843 1036 q 1183 507 1183 776 q 1141 272 1183 369 q 972 77 1099 175 q 607 -21 844 -21 q 247 74 372 -21 q 76 268 121 168 q 32 507 32 368 q 74 744 32 644 q 211 914 117 843 m 347 507 q 417 216 347 322 q 607 110 486 110 q 797 217 725 110 q 868 507 868 324 q 797 797 868 689 q 607 906 726 906 q 417 799 486 906 q 347 507 347 693 m 504 1347 q 562 1342 536 1347 q 625 1319 588 1336 l 713 1285 l 747 1279 q 821 1344 804 1279 l 875 1344 q 865 1265 875 1300 q 815 1183 857 1221 q 728 1149 774 1149 q 700 1151 710 1149 q 665 1160 690 1153 q 615 1175 622 1172 q 572 1192 607 1178 l 506 1217 q 474 1221 493 1221 q 393 1150 408 1221 l 339 1150 q 393 1296 350 1244 q 504 1347 436 1347 z "},"Ö":{"ha":1215,"x_min":32,"x_max":1183,"o":"m 211 914 q 607 1036 367 1036 q 967 940 840 1036 q 1139 744 1093 844 q 1172 638 1161 694 q 1183 508 1183 581 q 1142 275 1183 369 q 1013 111 1100 181 q 824 11 926 42 q 607 -19 722 -19 q 201 109 371 -19 q 32 508 32 238 q 74 744 32 644 q 211 914 117 843 m 400 1276 q 482 1243 444 1276 q 517 1161 517 1208 q 481 1074 517 1110 q 393 1038 444 1038 q 313 1072 347 1038 q 279 1160 279 1106 q 315 1242 279 1207 q 400 1276 351 1276 m 817 1276 q 902 1242 867 1276 q 938 1161 938 1208 q 904 1074 938 1111 q 825 1038 871 1038 q 736 1072 772 1038 q 700 1161 700 1106 q 733 1242 700 1207 q 817 1276 767 1276 m 607 111 q 797 218 725 111 q 868 508 868 325 q 797 798 868 690 q 607 906 726 906 q 417 799 486 906 q 347 508 347 693 q 417 217 347 324 q 607 111 486 111 z "},"Ø":{"ha":1215,"x_min":32,"x_max":1183,"o":"m 1026 1071 l 1096 1025 l 1001 915 l 1043 879 q 1082 836 1053 869 q 1122 789 1103 813 q 1183 508 1183 719 q 1141 275 1183 372 q 974 78 1099 178 q 607 -21 850 -21 q 446 -10 497 -21 q 382 8 421 -6 q 300 43 343 22 l 207 -69 l 142 -22 l 229 88 q 80 263 128 161 q 32 508 32 365 q 74 743 32 646 q 201 906 115 840 q 388 1004 286 972 q 606 1036 490 1036 q 776 1019 701 1036 q 852 997 811 1011 q 931 963 893 982 l 1026 1071 m 608 110 q 797 217 725 110 q 868 506 868 324 q 839 708 868 618 l 431 199 q 608 110 504 110 m 608 906 q 417 799 486 906 q 349 504 349 692 q 353 383 349 417 q 383 286 358 349 l 793 801 q 608 906 724 906 z "},"Ù":{"ha":1246,"x_min":7,"x_max":1240,"o":"m 7 1001 l 619 1001 l 619 867 l 529 867 q 478 853 492 867 q 465 799 465 840 l 465 369 q 467 304 465 333 q 474 246 468 275 q 499 185 479 217 q 681 114 547 114 q 852 167 819 114 q 893 260 885 221 q 901 358 901 300 l 901 799 q 892 855 901 843 q 851 867 883 867 l 749 867 l 749 1001 l 1240 1001 l 1240 867 l 1140 867 q 1093 854 1106 867 q 1085 835 1088 847 q 1082 799 1082 822 l 1082 368 q 1065 206 1082 265 q 972 61 1049 147 q 643 -25 896 -25 q 324 32 431 -25 q 192 153 218 89 q 165 376 165 218 l 165 799 q 153 853 165 840 q 106 867 142 867 l 7 867 l 7 1001 m 539 1424 l 761 1203 l 700 1129 l 443 1310 l 539 1424 z "},"Ú":{"ha":1246,"x_min":7,"x_max":1240,"o":"m 7 1001 l 619 1001 l 619 867 l 529 867 q 478 853 492 867 q 465 799 465 840 l 465 369 q 467 304 465 333 q 474 246 468 275 q 499 185 479 217 q 681 114 547 114 q 852 167 819 114 q 893 260 885 221 q 901 358 901 300 l 901 799 q 892 855 901 843 q 851 867 883 867 l 749 867 l 749 1001 l 1240 1001 l 1240 867 l 1140 867 q 1093 854 1106 867 q 1085 835 1088 847 q 1082 799 1082 822 l 1082 368 q 1065 206 1082 265 q 972 61 1049 147 q 643 -25 896 -25 q 324 32 431 -25 q 192 153 218 89 q 165 376 165 218 l 165 799 q 153 853 165 840 q 106 867 142 867 l 7 867 l 7 1001 m 719 1419 l 807 1301 l 535 1131 l 476 1211 l 719 1419 z "},"Û":{"ha":1246,"x_min":7,"x_max":1240,"o":"m 7 1001 l 619 1001 l 619 867 l 529 867 q 478 853 492 867 q 465 799 465 840 l 465 369 q 467 304 465 333 q 474 246 468 275 q 499 185 479 217 q 681 114 547 114 q 852 167 819 114 q 893 260 885 221 q 901 358 901 300 l 901 799 q 892 855 901 843 q 851 867 883 867 l 749 867 l 749 1001 l 1240 1001 l 1240 867 l 1140 867 q 1093 854 1106 867 q 1085 835 1088 847 q 1082 799 1082 822 l 1082 368 q 1065 206 1082 265 q 972 61 1049 147 q 643 -25 896 -25 q 324 32 431 -25 q 192 153 218 89 q 165 376 165 218 l 165 799 q 153 853 165 840 q 106 867 142 867 l 7 867 l 7 1001 m 544 1379 l 701 1379 l 867 1171 l 821 1129 l 624 1263 l 425 1129 l 379 1171 l 544 1379 z "},"Ü":{"ha":1246,"x_min":7,"x_max":1240,"o":"m 499 1275 q 581 1242 543 1275 q 615 1161 615 1207 q 581 1072 615 1108 q 493 1036 547 1036 q 412 1070 446 1036 q 378 1158 378 1104 q 414 1240 378 1206 q 499 1275 450 1275 m 867 1275 q 951 1241 915 1275 q 986 1161 986 1207 q 954 1072 986 1108 q 872 1036 922 1036 q 785 1072 821 1036 q 749 1161 749 1108 q 783 1241 749 1207 q 867 1275 817 1275 m 7 1001 l 619 1001 l 619 867 l 529 867 q 478 853 492 867 q 465 799 465 840 l 465 369 q 467 304 465 333 q 474 246 468 275 q 499 185 479 217 q 681 114 547 114 q 852 167 819 114 q 893 260 885 221 q 901 358 901 300 l 901 799 q 892 855 901 843 q 851 867 883 867 l 749 867 l 749 1001 l 1240 1001 l 1240 867 l 1140 867 q 1093 854 1106 867 q 1085 835 1088 847 q 1082 799 1082 822 l 1082 368 q 1065 206 1082 265 q 972 61 1049 147 q 643 -25 896 -25 q 324 32 431 -25 q 192 153 218 89 q 165 376 165 218 l 165 799 q 153 853 165 840 q 106 867 142 867 l 7 867 l 7 1001 z "},"ß":{"ha":1061,"x_min":21,"x_max":1035,"o":"m 21 124 l 90 124 q 132 137 121 124 q 143 190 143 150 l 143 246 l 143 754 q 542 1032 143 1032 q 832 971 733 1032 q 931 792 931 910 q 929 755 931 767 q 919 718 928 743 q 879 649 903 675 q 800 589 856 622 q 884 560 854 574 q 974 494 914 547 q 1035 315 1035 440 q 928 74 1035 160 q 633 -12 822 -12 q 563 -7 600 -12 l 485 1 l 485 138 q 561 129 538 129 q 699 177 647 129 q 751 303 751 225 q 699 424 751 381 q 638 457 674 446 q 551 468 603 468 l 521 467 l 476 463 l 476 633 q 549 638 528 633 q 585 649 571 643 q 625 671 599 654 q 668 785 668 697 q 632 885 668 849 q 535 922 596 922 q 438 888 474 922 q 401 796 401 854 l 401 751 l 401 0 l 21 0 l 21 124 z "},"à":{"ha":951,"x_min":26,"x_max":942,"o":"m 283 513 q 252 442 283 469 q 174 414 221 414 q 88 444 124 414 q 54 522 54 476 q 157 661 54 608 q 431 714 260 714 q 526 710 486 714 q 601 694 567 706 q 706 644 668 678 q 756 581 743 615 q 765 542 761 565 q 769 494 769 519 l 769 211 q 776 142 769 160 q 808 124 786 124 q 838 149 833 124 l 844 190 l 847 249 l 847 256 l 942 256 l 942 221 q 933 108 942 146 q 889 26 925 71 q 728 -18 853 -18 q 663 -13 685 -18 q 626 -3 640 -8 q 593 13 611 1 q 532 94 561 29 q 405 1 476 26 q 253 -24 333 -24 q 88 26 150 -24 q 26 163 26 76 q 72 288 26 236 q 203 357 118 339 l 318 382 q 474 431 435 403 q 514 508 514 456 q 351 617 514 617 l 318 615 q 270 609 288 615 q 228 590 253 603 q 272 555 261 569 q 283 513 283 540 m 508 342 l 463 318 l 389 289 q 314 253 342 274 q 286 201 286 232 q 375 115 286 115 q 508 283 508 115 l 508 342 m 392 1071 l 614 850 l 553 776 l 296 957 l 392 1071 z "},"á":{"ha":951,"x_min":26,"x_max":942,"o":"m 283 513 q 252 442 283 469 q 174 414 221 414 q 88 444 124 414 q 54 522 54 476 q 157 661 54 608 q 431 714 260 714 q 526 710 486 714 q 601 694 567 706 q 706 644 668 678 q 756 581 743 615 q 765 542 761 565 q 769 494 769 519 l 769 211 q 776 142 769 160 q 808 124 786 124 q 838 149 833 124 l 844 190 l 847 249 l 847 256 l 942 256 l 942 221 q 933 108 942 146 q 889 26 925 71 q 728 -18 853 -18 q 663 -13 685 -18 q 626 -3 640 -8 q 593 13 611 1 q 532 94 561 29 q 405 1 476 26 q 253 -24 333 -24 q 88 26 150 -24 q 26 163 26 76 q 72 288 26 236 q 203 357 118 339 l 318 382 q 474 431 435 403 q 514 508 514 456 q 351 617 514 617 l 318 615 q 270 609 288 615 q 228 590 253 603 q 272 555 261 569 q 283 513 283 540 m 508 342 l 463 318 l 389 289 q 314 253 342 274 q 286 201 286 232 q 375 115 286 115 q 508 283 508 115 l 508 342 m 572 1067 l 660 949 l 388 778 l 329 858 l 572 1067 z "},"â":{"ha":951,"x_min":26,"x_max":942,"o":"m 283 513 q 252 442 283 469 q 174 414 221 414 q 88 444 124 414 q 54 522 54 476 q 157 661 54 608 q 431 714 260 714 q 526 710 486 714 q 601 694 567 706 q 706 644 668 678 q 756 581 743 615 q 765 542 761 565 q 769 494 769 519 l 769 211 q 776 142 769 160 q 808 124 786 124 q 838 149 833 124 l 844 190 l 847 249 l 847 256 l 942 256 l 942 221 q 933 108 942 146 q 889 26 925 71 q 728 -18 853 -18 q 663 -13 685 -18 q 626 -3 640 -8 q 593 13 611 1 q 532 94 561 29 q 405 1 476 26 q 253 -24 333 -24 q 88 26 150 -24 q 26 163 26 76 q 72 288 26 236 q 203 357 118 339 l 318 382 q 474 431 435 403 q 514 508 514 456 q 351 617 514 617 l 318 615 q 270 609 288 615 q 228 590 253 603 q 272 555 261 569 q 283 513 283 540 m 508 342 l 463 318 l 389 289 q 314 253 342 274 q 286 201 286 232 q 375 115 286 115 q 508 283 508 115 l 508 342 m 397 1026 l 554 1026 l 719 818 l 674 776 l 476 910 l 278 776 l 232 818 l 397 1026 z "},"ã":{"ha":951,"x_min":26,"x_max":942,"o":"m 283 513 q 252 442 283 469 q 174 414 221 414 q 88 444 124 414 q 54 522 54 476 q 157 661 54 608 q 431 714 260 714 q 526 710 486 714 q 601 694 567 706 q 706 644 668 678 q 756 581 743 615 q 765 542 761 565 q 769 494 769 519 l 769 211 q 776 142 769 160 q 808 124 786 124 q 838 149 833 124 l 844 190 l 847 249 l 847 256 l 942 256 l 942 221 q 933 108 942 146 q 889 26 925 71 q 728 -18 853 -18 q 663 -13 685 -18 q 626 -3 640 -8 q 593 13 611 1 q 532 94 561 29 q 405 1 476 26 q 253 -24 333 -24 q 88 26 150 -24 q 26 163 26 76 q 72 288 26 236 q 203 357 118 339 l 318 382 q 474 431 435 403 q 514 508 514 456 q 351 617 514 617 l 318 615 q 270 609 288 615 q 228 590 253 603 q 272 555 261 569 q 283 513 283 540 m 508 342 l 463 318 l 389 289 q 314 253 342 274 q 286 201 286 232 q 375 115 286 115 q 508 283 508 115 l 508 342 m 372 994 q 430 989 404 994 q 493 967 456 983 l 581 932 l 615 926 q 689 992 672 926 l 743 992 q 733 913 743 947 q 683 831 725 868 q 596 796 642 796 q 568 798 578 796 q 533 807 558 800 q 483 822 490 819 q 440 839 475 825 l 374 864 q 342 868 361 868 q 261 797 276 868 l 207 797 q 261 943 218 892 q 372 994 304 994 z "},"ä":{"ha":960,"x_min":26,"x_max":950,"o":"m 303 508 q 269 439 303 468 q 179 413 235 413 q 94 446 129 413 q 60 533 60 479 q 162 660 60 610 q 428 710 264 710 q 694 659 611 710 q 776 492 776 608 l 776 208 q 817 124 776 124 q 847 149 836 124 q 854 244 854 190 l 854 256 l 950 256 l 950 221 q 942 110 950 146 q 897 28 933 75 q 736 -18 860 -18 q 665 -11 693 -18 q 601 11 635 -7 q 539 94 568 29 q 413 0 486 28 q 258 -24 339 -24 q 92 30 157 -24 q 26 165 26 83 q 73 290 26 239 q 203 357 119 340 l 326 382 q 478 428 436 400 q 521 508 521 457 q 358 614 521 614 q 247 588 301 614 q 292 551 279 569 q 300 533 297 543 q 303 508 303 524 m 283 1014 q 369 978 333 1014 q 406 892 406 944 q 371 809 406 843 q 283 775 336 775 q 200 812 235 775 q 165 897 165 849 q 199 978 165 943 q 283 1014 233 1014 m 589 1014 q 673 980 638 1014 q 708 897 708 946 q 674 811 708 847 q 589 775 640 775 q 501 808 539 775 q 467 892 467 843 q 502 978 467 942 q 589 1014 538 1014 m 419 297 q 321 252 347 272 q 294 201 294 232 q 383 115 294 115 q 517 283 517 115 l 517 342 l 472 319 l 419 297 z "},"å":{"ha":951,"x_min":26,"x_max":942,"o":"m 283 508 q 252 440 283 467 q 174 413 221 413 q 89 443 124 413 q 54 519 54 474 q 156 658 54 606 q 429 710 257 710 l 529 706 q 620 688 572 701 q 705 642 668 675 q 756 576 742 610 q 769 492 769 542 l 769 208 q 808 124 769 124 q 838 149 833 124 l 844 190 l 847 249 l 847 256 l 942 256 l 942 221 q 933 108 942 146 q 889 26 925 71 q 728 -18 853 -18 q 663 -13 685 -18 q 626 -3 640 -8 q 593 13 611 1 q 532 94 561 29 q 405 1 476 26 q 253 -24 333 -24 q 88 26 150 -24 q 26 163 26 76 q 72 288 26 236 q 203 357 118 339 l 318 382 q 474 428 435 403 q 514 507 514 454 q 353 614 514 614 l 318 613 q 268 606 285 613 l 228 588 q 272 551 260 569 q 281 533 278 543 q 283 508 283 524 m 469 1039 q 568 999 528 1039 q 610 904 610 961 q 568 798 610 843 q 467 753 526 753 q 366 793 407 753 q 325 892 325 833 q 367 995 325 951 q 469 1039 410 1039 m 411 297 q 311 252 336 272 q 286 201 286 232 q 375 115 286 115 q 508 283 508 115 l 508 342 l 463 318 l 411 297 m 467 829 q 514 849 494 829 q 533 897 533 868 q 514 943 533 924 q 467 963 494 963 q 419 943 439 963 q 400 896 400 924 q 419 849 400 868 q 467 829 439 829 z "},"æ":{"ha":1315,"x_min":25,"x_max":1293,"o":"m 303 513 q 270 444 303 471 q 185 418 238 418 q 97 450 131 418 q 63 531 63 482 q 158 661 63 611 q 414 711 254 711 l 458 711 l 539 703 q 688 650 603 694 q 797 696 751 685 q 903 707 842 707 q 1026 693 969 707 q 1136 649 1088 681 q 1224 569 1188 619 q 1277 464 1261 518 q 1293 318 1293 410 l 776 318 q 817 165 776 228 q 944 103 857 103 q 1003 110 979 103 q 1046 135 1026 117 q 1090 186 1076 164 l 1110 243 l 1283 243 q 1263 171 1272 199 q 1239 122 1253 143 q 1140 31 1217 85 q 918 -22 1063 -22 q 781 -5 840 -22 q 682 39 722 13 q 589 131 646 65 l 522 67 q 438 14 506 54 q 267 -21 372 -21 q 90 30 156 -21 q 25 167 25 81 q 239 369 25 336 l 325 383 l 401 400 l 440 411 l 465 422 q 519 507 519 447 q 479 584 519 554 q 372 614 439 614 l 339 613 q 282 606 301 613 l 247 589 q 291 556 279 571 q 303 513 303 540 m 514 340 l 482 322 l 443 307 l 401 292 q 365 278 383 285 q 319 256 346 271 q 290 192 290 235 q 313 139 290 161 q 372 119 336 119 q 473 159 432 119 q 514 256 514 199 l 514 340 m 778 425 l 1042 425 q 915 586 1042 586 q 825 544 861 586 q 796 499 806 525 q 778 425 786 474 z "},"ç":{"ha":793,"x_min":31,"x_max":775,"o":"m 488 590 q 300 340 300 590 q 346 165 300 226 q 479 103 392 103 q 583 136 558 103 q 618 193 608 169 l 635 260 l 775 260 q 751 144 767 185 q 692 61 735 104 q 583 -4 649 18 q 422 -26 517 -26 l 413 -61 l 425 -61 q 520 -86 490 -61 q 550 -161 550 -111 q 494 -258 550 -219 q 357 -297 439 -297 q 296 -290 328 -297 l 314 -231 l 332 -232 q 351 -235 344 -232 q 409 -219 382 -235 q 438 -182 436 -203 q 354 -137 438 -137 l 347 -137 l 314 -137 l 347 -18 q 245 8 282 -7 q 119 90 208 22 q 31 336 31 158 q 141 612 31 510 q 439 714 251 714 q 678 647 583 714 q 774 474 774 579 q 733 372 774 411 q 688 343 713 353 q 628 333 663 333 q 534 367 575 333 q 493 444 493 400 q 597 553 493 525 q 488 590 547 590 z "},"è":{"ha":829,"x_min":32,"x_max":804,"o":"m 286 319 q 292 241 286 264 q 303 206 299 218 q 321 175 308 194 q 461 106 369 106 q 626 247 585 106 l 796 247 q 758 138 779 174 q 662 41 736 101 q 433 -19 588 -19 q 143 81 254 -19 q 32 349 32 182 q 142 613 32 510 q 428 717 251 717 q 701 620 626 717 q 790 471 776 524 q 800 408 796 447 q 804 319 804 368 l 286 319 m 292 428 l 558 428 q 524 549 558 506 q 431 593 490 593 q 331 549 371 593 q 292 428 292 506 m 331 1071 l 553 850 l 492 776 l 235 957 l 331 1071 z "},"é":{"ha":829,"x_min":32,"x_max":804,"o":"m 286 319 q 292 241 286 264 q 303 206 299 218 q 321 175 308 194 q 461 106 369 106 q 626 247 585 106 l 796 247 q 758 138 779 174 q 662 41 736 101 q 433 -19 588 -19 q 143 81 254 -19 q 32 349 32 182 q 142 613 32 510 q 428 717 251 717 q 701 620 626 717 q 790 471 776 524 q 800 408 796 447 q 804 319 804 368 l 286 319 m 292 428 l 558 428 q 524 549 558 506 q 431 593 490 593 q 331 549 371 593 q 292 428 292 506 m 511 1067 l 599 949 l 326 778 l 268 858 l 511 1067 z "},"ê":{"ha":829,"x_min":32,"x_max":804,"o":"m 286 319 q 292 241 286 264 q 303 206 299 218 q 321 175 308 194 q 461 106 369 106 q 626 247 585 106 l 796 247 q 758 138 779 174 q 662 41 736 101 q 433 -19 588 -19 q 143 81 254 -19 q 32 349 32 182 q 142 613 32 510 q 428 717 251 717 q 701 620 626 717 q 790 471 776 524 q 800 408 796 447 q 804 319 804 368 l 286 319 m 292 428 l 558 428 q 524 549 558 506 q 431 593 490 593 q 331 549 371 593 q 292 428 292 506 m 336 1026 l 493 1026 l 658 818 l 613 776 l 415 910 l 217 776 l 171 818 l 336 1026 z "},"ë":{"ha":829,"x_min":32,"x_max":804,"o":"m 286 319 q 292 241 286 264 q 303 206 299 218 q 321 175 308 194 q 461 106 369 106 q 626 247 585 106 l 796 247 q 758 138 779 174 q 662 41 736 101 q 433 -19 588 -19 q 143 81 254 -19 q 32 349 32 182 q 142 613 32 510 q 428 717 251 717 q 701 620 626 717 q 790 471 776 524 q 800 408 796 447 q 804 319 804 368 l 286 319 m 292 428 l 558 428 q 524 549 558 506 q 431 593 490 593 q 331 549 371 593 q 292 428 292 506 m 267 1017 q 353 981 317 1017 q 389 894 389 944 q 354 811 389 846 q 268 776 319 776 q 183 813 218 776 q 149 900 149 850 q 183 981 149 946 q 267 1017 218 1017 m 563 1017 q 647 983 611 1017 q 682 901 682 949 q 648 813 682 849 q 563 776 614 776 q 478 810 514 776 q 442 894 442 844 q 476 981 442 944 q 563 1017 510 1017 z "},"ì":{"ha":542,"x_min":18,"x_max":529,"o":"m 18 124 l 89 124 q 135 136 122 124 q 147 190 147 149 l 147 242 l 147 503 q 136 555 147 540 q 92 569 125 569 l 19 569 l 19 697 l 407 697 l 407 190 l 408 153 q 418 136 408 144 q 457 124 426 124 l 529 124 l 529 0 l 18 0 l 18 124 m 188 1071 l 410 850 l 349 776 l 92 957 l 188 1071 z "},"í":{"ha":542,"x_min":18,"x_max":529,"o":"m 18 124 l 89 124 q 135 136 122 124 q 147 190 147 149 l 147 242 l 147 503 q 136 555 147 540 q 92 569 125 569 l 19 569 l 19 697 l 407 697 l 407 190 l 408 153 q 418 136 408 144 q 457 124 426 124 l 529 124 l 529 0 l 18 0 l 18 124 m 368 1067 l 456 949 l 183 778 l 125 858 l 368 1067 z "},"î":{"ha":542,"x_min":18,"x_max":529,"o":"m 18 124 l 89 124 q 135 136 122 124 q 147 190 147 149 l 147 242 l 147 503 q 136 555 147 540 q 92 569 125 569 l 19 569 l 19 697 l 407 697 l 407 190 l 408 153 q 418 136 408 144 q 457 124 426 124 l 529 124 l 529 0 l 18 0 l 18 124 m 192 1026 l 349 1026 l 514 818 l 468 776 l 271 910 l 72 776 l 26 818 l 192 1026 z "},"ï":{"ha":542,"x_min":4,"x_max":538,"o":"m 18 124 l 89 124 q 135 136 122 124 q 147 190 147 149 l 147 242 l 147 503 q 136 555 147 540 q 92 569 125 569 l 19 569 l 19 697 l 407 697 l 407 190 l 408 153 q 418 136 408 144 q 457 124 426 124 l 529 124 l 529 0 l 18 0 l 18 124 m 122 1017 q 208 981 172 1017 q 244 894 244 944 q 210 811 244 846 q 124 776 175 776 q 39 813 74 776 q 4 900 4 850 q 39 981 4 946 q 122 1017 74 1017 m 418 1017 q 502 983 467 1017 q 538 901 538 949 q 503 813 538 849 q 418 776 469 776 q 333 810 369 776 q 297 894 297 844 q 331 981 297 944 q 418 1017 365 1017 z "},"ñ":{"ha":1044,"x_min":17,"x_max":1035,"o":"m 17 697 l 396 697 l 396 594 l 429 626 l 490 676 q 667 707 533 707 q 861 652 819 707 q 911 571 903 597 q 918 546 915 558 q 921 518 921 533 l 922 419 l 922 190 q 927 135 922 146 q 957 124 932 124 l 1035 124 l 1035 0 l 576 0 l 576 124 l 614 124 l 625 124 q 664 189 664 124 l 664 410 q 638 524 664 490 q 554 557 611 557 q 446 510 488 557 q 404 386 404 464 l 404 190 q 412 135 404 147 q 446 124 419 124 l 456 124 l 500 124 l 500 0 l 17 0 l 17 124 l 96 124 q 135 137 124 124 q 146 190 146 150 l 146 217 l 146 503 l 146 535 q 136 556 143 549 q 119 567 133 563 l 100 569 l 17 569 l 17 697 m 419 994 q 477 989 451 994 q 540 967 503 983 l 628 932 l 663 926 q 736 992 719 926 l 790 992 q 781 913 790 947 q 731 831 772 868 q 643 796 689 796 q 615 798 625 796 q 581 807 606 800 q 530 822 538 819 q 488 839 522 825 l 421 864 q 389 868 408 868 q 308 797 324 868 l 254 797 q 308 943 265 892 q 419 994 351 994 z "},"ò":{"ha":910,"x_min":32,"x_max":881,"o":"m 456 715 q 765 617 650 715 q 881 349 881 518 q 765 81 881 182 q 456 -19 650 -19 q 145 79 258 -19 q 32 349 32 178 q 147 615 32 515 q 456 715 261 715 m 299 349 q 456 99 299 99 q 570 163 529 99 q 611 347 611 226 q 456 594 611 594 q 340 531 381 594 q 299 349 299 467 m 371 1071 l 593 850 l 532 776 l 275 957 l 371 1071 z "},"ó":{"ha":910,"x_min":32,"x_max":881,"o":"m 456 715 q 765 617 650 715 q 881 349 881 518 q 765 81 881 182 q 456 -19 650 -19 q 145 79 258 -19 q 32 349 32 178 q 147 615 32 515 q 456 715 261 715 m 299 349 q 456 99 299 99 q 570 163 529 99 q 611 347 611 226 q 456 594 611 594 q 340 531 381 594 q 299 349 299 467 m 551 1067 l 639 949 l 367 778 l 308 858 l 551 1067 z "},"ô":{"ha":910,"x_min":32,"x_max":881,"o":"m 456 715 q 765 617 650 715 q 881 349 881 518 q 765 81 881 182 q 456 -19 650 -19 q 145 79 258 -19 q 32 349 32 178 q 147 615 32 515 q 456 715 261 715 m 299 349 q 456 99 299 99 q 570 163 529 99 q 611 347 611 226 q 456 594 611 594 q 340 531 381 594 q 299 349 299 467 m 376 1026 l 533 1026 l 699 818 l 653 776 l 456 910 l 257 776 l 211 818 l 376 1026 z "},"õ":{"ha":910,"x_min":32,"x_max":881,"o":"m 456 715 q 765 617 650 715 q 881 349 881 518 q 765 81 881 182 q 456 -19 650 -19 q 145 79 258 -19 q 32 349 32 178 q 147 615 32 515 q 456 715 261 715 m 299 349 q 456 99 299 99 q 570 163 529 99 q 611 347 611 226 q 456 594 611 594 q 340 531 381 594 q 299 349 299 467 m 351 994 q 409 989 383 994 q 472 967 435 983 l 560 932 l 594 926 q 668 992 651 926 l 722 992 q 713 913 722 947 q 663 831 704 868 q 575 796 621 796 q 547 798 557 796 q 513 807 538 800 q 462 822 469 819 q 419 839 454 825 l 353 864 q 321 868 340 868 q 240 797 256 868 l 186 797 q 240 943 197 892 q 351 994 283 994 z "},"ö":{"ha":910,"x_min":32,"x_max":881,"o":"m 456 707 q 764 608 647 707 q 881 344 881 508 q 765 79 881 178 q 456 -19 650 -19 q 147 79 263 -19 q 32 344 32 178 q 148 608 32 508 q 456 707 264 707 m 301 1008 q 389 974 353 1008 q 425 888 425 940 q 391 804 425 838 q 304 771 357 771 q 219 807 256 771 q 183 893 183 843 q 217 974 183 940 q 301 1008 251 1008 m 608 1008 q 692 976 658 1008 q 726 894 726 943 q 692 807 726 843 q 606 771 658 771 q 519 804 557 771 q 485 888 485 839 q 522 973 485 938 q 608 1008 558 1008 m 456 99 q 570 162 529 99 q 611 344 611 225 q 456 588 611 588 q 340 524 381 588 q 299 344 299 461 q 339 161 299 224 q 456 99 379 99 z "},"÷":{"ha":825,"x_min":60,"x_max":703,"o":"m 382 219 q 438 197 415 219 q 460 140 460 175 q 436 85 460 107 q 382 61 415 61 q 325 85 349 61 q 303 140 303 111 q 328 197 303 174 q 382 219 353 219 m 703 281 l 60 281 l 60 375 l 703 375 l 703 281 m 382 593 q 438 569 415 593 q 460 514 460 544 q 436 458 460 481 q 382 435 415 435 q 325 457 349 435 q 303 514 303 482 q 328 570 303 547 q 382 593 353 593 z "},"ø":{"ha":910,"x_min":32,"x_max":881,"o":"m 753 700 l 853 700 l 761 608 q 881 339 881 508 q 767 72 881 174 q 464 -29 653 -29 q 218 22 317 -29 l 171 -21 l 68 -21 l 153 67 l 113 106 l 82 146 q 32 339 32 225 q 145 606 32 506 q 453 707 258 707 q 701 650 596 707 l 753 700 m 457 92 q 611 350 611 92 q 604 438 611 404 l 339 153 q 457 92 379 92 m 460 588 q 299 339 299 588 l 300 288 l 308 233 l 575 518 q 460 588 535 588 z "},"ù":{"ha":1032,"x_min":11,"x_max":1021,"o":"m 11 697 l 386 697 l 386 282 q 413 167 386 201 q 496 135 440 135 q 528 138 517 135 l 565 154 q 609 190 590 167 q 636 239 628 213 q 644 311 644 265 l 644 501 q 634 555 644 542 q 590 568 624 568 l 518 568 l 518 697 l 903 697 l 903 190 q 912 137 903 150 q 953 124 921 124 l 1021 124 l 1021 0 l 651 0 l 651 93 l 606 49 l 539 8 q 392 -17 490 -17 l 321 -12 q 288 -7 297 -10 q 250 7 278 -4 q 171 61 211 22 q 134 132 142 94 q 126 283 126 169 l 126 503 l 126 536 q 119 556 126 544 q 89 571 113 568 l 11 571 l 11 697 m 432 1071 l 654 850 l 593 776 l 336 957 l 432 1071 z "},"ú":{"ha":1032,"x_min":11,"x_max":1021,"o":"m 11 697 l 386 697 l 386 282 q 413 167 386 201 q 496 135 440 135 q 528 138 517 135 l 565 154 q 609 190 590 167 q 636 239 628 213 q 644 311 644 265 l 644 501 q 634 555 644 542 q 590 568 624 568 l 518 568 l 518 697 l 903 697 l 903 190 q 912 137 903 150 q 953 124 921 124 l 1021 124 l 1021 0 l 651 0 l 651 93 l 606 49 l 539 8 q 392 -17 490 -17 l 321 -12 q 288 -7 297 -10 q 250 7 278 -4 q 171 61 211 22 q 134 132 142 94 q 126 283 126 169 l 126 503 l 126 536 q 119 556 126 544 q 89 571 113 568 l 11 571 l 11 697 m 613 1067 l 700 949 l 428 778 l 369 858 l 613 1067 z "},"û":{"ha":1032,"x_min":11,"x_max":1021,"o":"m 11 697 l 386 697 l 386 282 q 413 167 386 201 q 496 135 440 135 q 528 138 517 135 l 565 154 q 609 190 590 167 q 636 239 628 213 q 644 311 644 265 l 644 501 q 634 555 644 542 q 590 568 624 568 l 518 568 l 518 697 l 903 697 l 903 190 q 912 137 903 150 q 953 124 921 124 l 1021 124 l 1021 0 l 651 0 l 651 93 l 606 49 l 539 8 q 392 -17 490 -17 l 321 -12 q 288 -7 297 -10 q 250 7 278 -4 q 171 61 211 22 q 134 132 142 94 q 126 283 126 169 l 126 503 l 126 536 q 119 556 126 544 q 89 571 113 568 l 11 571 l 11 697 m 438 1026 l 594 1026 l 760 818 l 714 776 l 517 910 l 318 776 l 272 818 l 438 1026 z "},"ü":{"ha":1032,"x_min":11,"x_max":1021,"o":"m 313 1015 q 398 978 363 1015 q 433 892 433 942 q 399 810 433 846 q 314 775 364 775 q 229 811 265 775 q 193 897 193 847 q 228 981 193 946 q 313 1015 263 1015 m 615 1015 q 701 981 665 1015 q 736 900 736 947 q 702 811 736 847 q 615 775 668 775 q 529 808 567 775 q 494 892 494 843 q 530 978 494 942 q 615 1015 565 1015 m 11 697 l 386 697 l 386 282 q 413 167 386 201 q 496 135 440 135 q 528 138 517 135 l 565 154 q 609 190 590 167 q 636 239 628 213 q 644 311 644 265 l 644 501 q 634 555 644 542 q 590 568 624 568 l 518 568 l 518 697 l 903 697 l 903 190 q 912 137 903 150 q 953 124 921 124 l 1021 124 l 1021 0 l 651 0 l 651 93 l 606 49 l 539 8 q 392 -17 490 -17 l 321 -12 q 288 -7 297 -10 q 250 7 278 -4 q 171 61 211 22 q 134 132 142 94 q 126 283 126 169 l 126 503 l 126 536 q 119 556 126 544 q 89 571 113 568 l 11 571 l 11 697 z "},"ÿ":{"ha":907,"x_min":-25,"x_max":931,"o":"m 199 -226 q 350 -99 288 -226 l 382 -37 l 113 503 q 78 554 96 539 q 38 569 61 569 l -21 569 l -21 697 l 489 697 l 489 571 l 419 571 q 381 549 381 571 q 396 504 381 539 l 524 236 l 661 504 l 679 551 q 647 571 679 571 l 576 571 l 576 697 l 931 697 l 931 571 l 914 571 l 885 568 q 858 556 875 568 l 842 533 l 825 501 l 511 -90 q 193 -332 382 -332 q 38 -279 100 -332 q -25 -147 -25 -226 q 15 -41 -25 -85 q 118 3 56 3 q 207 -28 172 3 q 242 -107 242 -58 q 149 -210 242 -176 q 199 -226 178 -226 m 306 1017 q 392 981 356 1017 q 428 894 428 944 q 393 811 428 846 q 307 776 358 776 q 222 813 257 776 q 188 900 188 850 q 222 981 188 946 q 306 1017 257 1017 m 601 1017 q 685 983 650 1017 q 721 901 721 949 q 687 813 721 849 q 601 776 653 776 q 517 810 553 776 q 481 894 481 844 q 515 981 481 944 q 601 1017 549 1017 z "},"˘":{"ha":518,"x_min":17,"x_max":501,"o":"m 68 1015 q 170 928 128 951 q 261 904 213 904 q 347 931 301 904 q 450 1015 392 957 l 501 975 q 418 863 454 900 q 342 804 385 825 q 261 783 300 783 q 226 785 238 783 q 192 794 215 788 q 113 844 154 806 q 17 975 72 883 l 68 1015 z "},"˙":{"ha":400,"x_min":0,"x_max":371,"o":"m 111 1407 l 371 1150 l 301 1064 l 0 1275 l 111 1407 z "},"ı":{"ha":542,"x_min":18,"x_max":529,"o":"m 18 124 l 89 124 q 135 136 122 124 q 147 190 147 149 l 147 242 l 147 503 q 136 555 147 540 q 92 569 125 569 l 19 569 l 19 697 l 407 697 l 407 190 l 408 153 q 418 136 408 144 q 457 124 426 124 l 529 124 l 529 0 l 18 0 l 18 124 z "},"˚":{"ha":319,"x_min":13,"x_max":299,"o":"m 156 1040 q 256 999 213 1040 q 299 897 299 957 q 258 797 299 839 q 156 754 217 754 q 56 796 99 754 q 13 897 13 838 q 54 997 13 954 q 156 1040 96 1040 m 156 829 q 203 848 183 829 q 224 896 224 867 q 204 944 224 925 q 156 964 185 964 q 108 944 128 964 q 89 896 89 925 q 108 849 89 868 q 156 829 128 829 z "},"˛":{"ha":354,"x_min":38,"x_max":317,"o":"m 178 228 q 276 190 235 228 q 317 97 317 153 q 276 16 317 50 q 178 -18 236 -18 q 78 15 118 -18 q 38 96 38 47 q 78 189 38 150 q 178 228 119 228 z "},"ˇ":{"ha":482,"x_min":-3,"x_max":485,"o":"m 43 1026 l 242 893 l 439 1026 l 485 986 l 319 778 l 163 778 l -3 986 l 43 1026 z "},"π":{"ha":825,"x_min":24,"x_max":731,"o":"m 561 518 l 560 485 l 556 276 l 556 221 q 567 74 556 101 q 610 46 579 46 q 668 88 646 46 q 690 210 690 129 l 725 210 l 725 203 q 689 39 725 92 q 578 -14 653 -14 q 467 42 501 -14 q 443 125 451 68 q 435 269 435 182 l 436 378 l 440 522 l 371 524 l 264 526 q 232 92 264 197 q 121 -14 200 -14 q 47 26 74 -14 q 24 146 24 67 l 24 172 l 57 172 q 69 118 57 136 q 108 100 82 100 q 183 165 167 100 q 208 318 200 231 q 217 526 217 406 l 186 526 q 103 507 132 526 q 65 453 74 490 l 33 453 q 47 533 33 500 q 97 594 60 565 q 254 624 135 624 l 396 619 l 607 615 q 674 624 654 615 q 699 654 694 633 l 731 656 q 698 551 731 585 q 594 517 665 517 l 575 517 l 561 518 z "},"∂":{"ha":742,"x_min":86,"x_max":606,"o":"m 497 399 l 506 438 l 510 481 l 514 604 q 492 779 514 722 q 426 836 471 836 q 357 788 401 836 q 279 739 313 739 q 243 749 258 739 q 228 783 232 758 q 269 853 228 821 q 369 882 311 882 q 522 808 475 882 q 588 666 569 735 q 606 510 606 597 q 517 133 606 283 q 297 -18 428 -18 q 146 53 206 -18 q 86 243 86 124 q 160 442 86 356 q 333 528 233 528 q 433 498 394 528 q 497 399 472 468 m 356 485 q 236 401 286 485 q 189 178 189 315 q 219 56 189 100 q 306 13 249 13 q 426 99 379 13 q 474 311 474 186 q 443 438 474 390 q 356 485 413 485 z "},"∆":{"ha":919,"x_min":29,"x_max":826,"o":"m 826 0 l 29 0 l 413 933 l 443 933 l 826 0 m 128 63 l 646 63 l 388 700 l 128 63 z "},"∏":{"ha":1236,"x_min":42,"x_max":1107,"o":"m 164 -244 l 164 978 l 42 978 l 42 1033 l 1107 1033 l 1107 978 l 985 978 l 985 -244 l 1107 -244 l 1107 -300 l 740 -300 l 740 -244 l 857 -244 l 857 978 l 292 978 l 292 -244 l 408 -244 l 408 -300 l 42 -300 l 42 -244 l 164 -244 z "},"√":{"ha":825,"x_min":-19,"x_max":825,"o":"m 825 1061 l 746 1061 l 343 -28 l 299 -28 l 82 571 l -3 540 l -19 594 l 172 661 l 346 181 l 696 1126 l 825 1126 l 825 1061 z "},"∞":{"ha":1071,"x_min":74,"x_max":915,"o":"m 508 331 q 408 201 463 246 q 353 169 382 179 q 290 158 325 158 q 136 231 199 158 q 74 414 74 304 q 131 601 74 529 q 276 672 188 672 q 390 631 340 672 q 482 500 440 590 q 578 629 524 586 q 635 661 606 650 q 700 672 665 672 q 851 599 788 672 q 899 517 883 563 q 915 417 915 472 q 860 229 915 300 q 714 158 804 158 q 597 200 651 158 q 508 331 547 242 m 458 454 q 376 551 422 518 q 271 583 331 583 q 153 535 199 583 q 108 410 108 486 q 149 286 108 335 q 256 239 192 239 q 354 283 310 239 q 458 454 399 326 m 532 376 q 612 281 563 314 q 719 247 661 247 q 837 296 792 247 q 882 421 882 344 q 840 544 882 496 q 729 592 797 592 q 631 542 681 592 q 532 376 586 493 z "},"∫":{"ha":411,"x_min":-125,"x_max":506,"o":"m 393 1051 q 474 1026 443 1051 q 506 958 506 1000 q 488 911 506 931 q 438 892 471 892 q 377 935 399 892 q 336 981 356 979 q 257 550 257 981 l 253 414 l 253 392 l 253 374 l 253 357 q 251 301 253 329 q 246 247 250 274 q 241 169 246 211 q 225 48 236 126 q 185 -96 214 -31 q 101 -206 156 -161 q -12 -251 46 -251 q -93 -226 -61 -251 q -125 -158 -125 -200 q -108 -111 -125 -129 q -57 -93 -90 -93 q 3 -135 -18 -93 q 46 -181 24 -176 q 125 269 125 -181 l 128 386 q 131 480 128 415 q 133 547 133 544 q 138 622 133 579 q 153 747 143 665 q 196 894 164 828 q 278 1008 225 965 q 393 1051 332 1051 z "},"≈":{"ha":825,"x_min":21,"x_max":742,"o":"m 21 139 l 21 246 q 81 280 53 265 q 142 307 110 294 q 244 326 196 326 q 403 293 304 326 q 542 260 503 260 q 624 281 578 260 q 742 353 671 301 l 742 244 q 685 210 711 225 q 635 186 658 196 q 535 168 585 168 q 478 175 510 168 q 390 200 446 182 q 229 233 290 233 q 153 217 189 233 q 88 183 117 201 q 55 164 65 171 q 21 139 44 157 m 21 304 l 21 411 l 81 446 l 151 475 q 243 490 194 490 q 403 458 301 490 q 542 425 504 425 q 625 444 582 425 q 676 472 647 454 q 742 517 704 489 l 742 410 l 685 376 l 617 346 q 535 333 581 333 q 388 366 485 333 q 236 399 290 399 q 144 379 185 399 q 21 304 106 364 z "},"≠":{"ha":825,"x_min":63,"x_max":700,"o":"m 574 467 l 700 467 l 700 378 l 493 378 l 392 278 l 700 278 l 700 189 l 310 189 l 146 25 l 86 86 l 189 189 l 63 189 l 63 278 l 271 278 l 372 378 l 63 378 l 63 467 l 453 467 l 617 631 l 678 569 l 574 467 z "},"≤":{"ha":825,"x_min":60,"x_max":703,"o":"m 703 25 l 60 25 l 60 119 l 703 119 l 703 25 m 225 389 l 703 240 l 703 143 l 61 344 l 61 435 l 703 636 l 703 539 l 225 389 z "},"≥":{"ha":825,"x_min":60,"x_max":703,"o":"m 703 25 l 60 25 l 60 119 l 703 119 l 703 25 m 703 344 l 60 143 l 60 240 l 538 389 l 60 539 l 60 636 l 703 435 l 703 344 z "},"◊":{"ha":742,"x_min":4,"x_max":682,"o":"m 343 1121 l 682 401 l 343 -324 l 4 401 l 343 1121 m 343 956 l 82 401 l 343 -158 l 604 401 l 343 956 z "},"":{"ha":1196,"x_min":60,"x_max":1188,"o":"m 1119 667 l 107 667 l 60 547 l 1081 547 l 1119 667 m 1188 997 l 1076 997 l 1036 918 q 985 951 1018 936 q 966 960 976 956 q 943 971 956 965 q 853 1009 918 988 q 692 1031 789 1031 q 301 882 454 1031 q 150 506 150 735 q 303 121 150 265 q 706 -22 454 -22 q 925 10 829 -22 q 974 28 954 19 q 1010 44 994 36 q 1038 64 1025 53 q 1067 92 1051 75 q 1088 113 1076 103 q 1110 135 1099 124 q 1131 174 1121 147 q 1153 336 1153 228 l 1021 336 q 1009 251 1019 296 q 968 179 999 207 l 926 146 q 875 126 904 131 q 767 122 846 122 q 553 225 628 122 q 479 515 479 328 q 552 792 479 696 q 760 888 625 888 q 826 886 799 888 q 869 882 854 885 q 932 857 903 878 q 966 832 950 842 q 993 808 982 822 q 1010 771 1004 794 q 1013 706 1015 747 l 1126 706 l 1188 997 m 1072 506 l 118 506 l 74 386 l 1033 386 l 1072 506 z "},"∙":{"ha":410,"x_min":64,"x_max":344,"o":"m 206 481 q 303 443 263 481 q 344 350 344 406 q 304 269 344 303 q 204 235 264 235 q 104 267 144 235 q 64 349 64 300 q 106 441 64 401 q 206 481 149 481 z "},"∕":{"ha":193,"x_min":-271,"x_max":464,"o":"m 360 951 l 464 951 l -167 0 l -271 0 l 360 951 z "},"":{"ha":997,"x_min":165,"x_max":832,"o":"m 322 381 l 165 538 l 342 714 l 500 554 l 660 711 l 832 539 l 672 382 l 832 222 l 656 47 l 499 204 l 340 47 l 165 221 l 322 381 z "},"":{"ha":633,"x_min":25,"x_max":613,"o":"m 25 814 l 81 814 q 201 848 154 814 q 282 931 247 882 l 468 931 l 468 203 q 476 146 468 163 q 513 133 485 133 l 613 133 l 613 0 l 29 0 l 29 133 l 131 133 q 187 145 175 133 q 199 203 199 157 l 199 258 l 199 693 l 25 693 l 25 814 z "},"ʺ":{"ha":372,"x_min":40,"x_max":371,"o":"m 283 1067 l 371 949 l 99 778 l 40 858 l 283 1067 z "},"ˉ":{"ha":511,"x_min":0,"x_max":511,"o":"m 0 946 l 511 946 l 511 797 l 0 797 l 0 946 z "},"̂":{"ha":482,"x_min":-3,"x_max":485,"o":"m 163 1026 l 319 1026 l 485 818 l 439 776 l 242 910 l 43 776 l -3 818 l 163 1026 z "},"̃":{"ha":531,"x_min":-3,"x_max":533,"o":"m 163 994 q 220 989 194 994 q 283 967 246 983 l 371 932 l 406 926 q 479 992 463 926 l 533 992 q 524 913 533 947 q 474 831 515 868 q 386 796 432 796 q 358 798 368 796 q 324 807 349 800 q 273 822 281 819 q 231 839 265 825 l 164 864 q 132 868 151 868 q 51 797 67 868 l -3 797 q 51 943 8 892 q 163 994 94 994 z "},"Σ":{"ha":1071,"x_min":50,"x_max":918,"o":"m 858 893 l 879 714 l 818 714 q 700 914 774 860 q 465 968 626 968 l 282 968 l 719 369 l 242 -178 l 501 -178 q 647 -167 590 -178 q 740 -133 703 -157 q 856 28 810 -92 l 918 28 l 876 -153 l 874 -162 q 719 -300 842 -300 l 50 -300 l 590 319 l 69 1033 l 708 1033 q 822 1013 797 1033 q 858 893 844 997 z "},"Ω":{"ha":1153,"x_min":69,"x_max":997,"o":"m 824 125 q 918 151 890 125 q 946 244 946 176 l 978 244 l 978 0 l 600 0 l 600 250 q 769 357 706 271 q 833 567 833 443 q 751 801 833 714 q 533 888 669 888 q 316 801 399 888 q 233 567 233 714 q 294 358 233 440 q 467 250 356 275 l 467 0 l 89 0 l 89 244 l 121 244 q 147 151 121 178 q 243 125 174 125 l 414 125 l 414 207 q 160 331 250 236 q 69 567 69 425 q 199 835 69 733 q 533 938 328 938 q 869 836 740 938 q 997 567 997 735 q 909 334 997 428 q 653 207 821 240 l 653 125 l 824 125 z "},"":{"ha":1186,"x_min":76,"x_max":1021,"o":"m 567 825 l 565 835 l 565 850 q 628 1005 565 933 q 790 1094 692 1076 l 790 1078 l 792 1053 q 722 895 792 967 q 583 824 651 824 l 578 824 l 567 825 m 1021 274 q 947 131 982 190 q 881 40 911 72 q 743 -24 817 -24 q 652 -1 708 -24 q 571 21 596 21 q 481 -1 539 21 q 396 -24 422 -24 q 308 6 354 -24 l 265 43 l 199 126 q 115 294 157 186 q 86 401 96 351 q 76 500 76 450 q 162 742 76 649 q 381 836 247 836 q 424 832 403 836 q 461 823 446 828 q 501 807 476 818 q 538 795 517 801 q 569 789 560 789 q 656 813 597 789 q 756 836 714 836 q 890 808 833 836 q 999 725 949 783 q 896 626 933 683 q 863 503 863 572 q 904 368 863 429 q 1021 274 946 307 z "},"ĥ":{"ha":1042,"x_min":31,"x_max":1022,"o":"m 846 1001 l 981 1001 l 981 646 l 840 646 l 819 710 q 774 783 806 744 q 684 851 747 814 q 503 889 621 889 q 353 856 411 889 q 296 769 296 822 q 381 675 296 700 l 626 622 q 903 535 785 593 q 1022 299 1022 478 q 908 69 1022 153 q 593 -14 794 -14 q 455 -2 531 -14 q 336 26 379 10 q 207 93 293 43 l 171 1 l 36 1 l 36 389 l 183 389 q 192 354 188 369 q 208 313 196 339 q 253 251 219 288 q 328 187 286 215 q 437 138 369 158 q 563 118 504 118 q 706 151 653 118 q 760 242 760 185 q 710 333 760 303 q 518 390 661 363 l 381 414 q 31 717 31 479 q 147 942 31 860 q 460 1025 263 1025 q 517 1024 490 1025 q 565 1018 543 1022 q 638 1006 606 1014 q 667 999 657 1001 q 697 988 676 996 q 749 965 728 979 l 810 924 l 846 1001 m 322 1379 l 521 1246 l 718 1379 l 764 1339 l 599 1131 l 442 1131 l 276 1339 l 322 1379 z "},"Ħ":{"ha":815,"x_min":31,"x_max":786,"o":"m 644 693 l 749 693 l 749 465 l 635 465 q 585 540 606 521 q 516 580 564 560 q 408 600 468 600 q 317 583 351 600 q 283 535 283 567 q 313 489 283 506 q 425 458 342 472 l 501 444 q 718 364 653 419 q 786 221 786 311 q 694 50 786 118 q 456 -18 603 -18 l 381 -14 q 283 8 321 -6 q 179 58 246 21 l 154 0 l 42 0 l 42 253 l 158 253 l 185 208 q 274 136 214 165 q 342 111 304 119 q 418 103 381 103 q 502 120 468 103 q 536 168 536 138 q 531 193 536 182 q 517 214 526 207 q 465 235 497 226 l 349 261 l 232 286 q 175 306 206 294 q 117 331 138 322 q 31 488 31 368 q 123 653 31 588 q 360 719 215 719 q 450 713 404 719 q 501 704 496 706 q 533 692 507 703 q 571 675 551 685 q 619 647 590 665 l 644 693 m 210 1026 l 408 893 l 606 1026 l 651 986 l 486 778 l 329 778 l 164 986 l 210 1026 z "},"ħ":{"ha":1019,"x_min":11,"x_max":996,"o":"m 11 169 l 638 865 l 444 865 q 258 826 310 865 q 206 685 206 788 l 203 624 l 49 624 l 49 1001 l 994 1001 l 994 849 l 347 135 l 626 135 q 785 185 729 135 q 842 335 842 236 l 844 385 l 996 385 l 996 0 l 11 0 l 11 169 m 311 1379 l 510 1246 l 707 1379 l 753 1339 l 588 1131 l 431 1131 l 265 1339 l 311 1379 z "},"Ĩ":{"ha":775,"x_min":24,"x_max":747,"o":"m 24 154 l 419 568 l 303 568 q 193 542 225 568 q 161 450 161 517 l 161 407 l 40 407 l 40 697 l 747 697 l 747 564 l 328 128 l 450 128 q 528 132 503 128 q 587 159 554 136 q 619 272 619 182 l 619 318 l 746 318 l 746 0 l 24 0 l 24 154 m 189 1026 l 388 893 l 585 1026 l 631 986 l 465 778 l 308 778 l 143 986 l 189 1026 z "}}}
